<?xml version="1.0" standalone="no"?>
<!DOCTYPE svg PUBLIC "-//W3C//DTD SVG 20010904//EN"
 "http://www.w3.org/TR/2001/REC-SVG-20010904/DTD/svg10.dtd">
<svg version="1.0" xmlns="http://www.w3.org/2000/svg"
 width="1024.000000pt" height="768.000000pt" viewBox="0 0 1024.000000 768.000000"
 preserveAspectRatio="xMidYMid meet">

<g transform="translate(0.000000,768.000000) scale(0.100000,-0.100000)"
fill="#000000" stroke="none">
<path d="M0 7310 l0 -370 520 0 c340 0 520 3 520 10 0 6 20 10 45 10 25 0 45
3 45 8 0 4 -20 6 -45 4 -28 -3 -45 0 -45 7 0 6 18 11 41 11 32 0 42 4 46 20 3
11 13 20 23 20 9 0 22 10 29 23 l12 22 -5 -22 c-5 -25 -11 -24 111 -27 68 -1
72 0 67 19 -15 45 -49 68 -65 43 -6 -9 -9 -6 -9 10 0 12 -4 22 -9 22 -5 0 -11
-10 -14 -22 -4 -23 -4 -23 -15 2 -6 14 -11 20 -11 14 -1 -19 -31 -25 -54 -12
-28 16 -40 16 -49 3 -5 -6 -8 -6 -8 3 0 22 -20 13 -21 -10 0 -22 -1 -22 -9 -3
-8 21 -8 21 -23 -25 -4 -9 -6 -6 -6 8 -1 13 -7 22 -17 22 -8 0 -12 5 -9 10 5
8 12 7 23 -2 13 -11 15 -10 9 5 -11 30 26 57 78 57 44 0 45 -1 45 -31 0 -47
24 -30 28 19 l3 41 -133 4 c-73 2 -25 2 107 0 132 -2 465 -10 740 -18 275 -8
730 -19 1010 -25 281 -5 614 -12 740 -15 127 -3 437 -10 690 -15 452 -10 698
-15 1105 -25 113 -3 401 -10 640 -15 239 -5 507 -12 595 -15 88 -2 437 -9 775
-15 338 -6 638 -13 667 -16 l52 -5 12 -55 12 -54 46 -1 c25 -1 49 -1 54 0 4 0
7 -3 7 -9 0 -5 -8 -10 -17 -11 -10 -1 -3 -6 15 -11 20 -7 32 -17 32 -28 0 -23
27 -33 34 -13 3 8 4 18 1 23 -6 10 45 20 101 20 26 0 44 -5 44 -11 0 -8 -17
-10 -55 -6 -48 5 -56 3 -66 -14 -6 -11 -8 -25 -6 -32 3 -7 10 1 16 17 14 35
16 33 25 -21 l6 -42 -42 -3 c-96 -7 149 -19 682 -32 397 -9 555 -16 558 -25 2
-6 21 -11 43 -11 35 0 39 -3 39 -24 0 -13 6 -27 13 -29 9 -4 9 -7 -1 -15 -9
-6 -12 -33 -11 -88 1 -43 1 -85 0 -92 -1 -10 -20 -12 -81 -8 -52 3 -80 1 -80
-5 0 -7 -30 -9 -87 -5 -86 5 -86 5 -23 -5 36 -5 81 -8 100 -5 19 2 46 0 60 -4
17 -5 19 -8 8 -9 -29 -2 -21 -18 12 -24 27 -6 30 -10 30 -47 0 -22 -4 -40 -10
-40 -5 0 -10 -18 -10 -40 0 -34 -3 -40 -21 -40 -18 0 -19 -2 -9 -15 7 -8 16
-15 21 -15 5 0 9 7 9 15 0 11 11 15 40 15 l40 0 0 -40 c0 -24 -5 -40 -12 -40
-28 0 7 -15 50 -21 26 -3 -98 -7 -275 -8 -208 -1 -323 -5 -323 -11 0 -6 49
-10 128 -10 226 0 567 -13 547 -21 -19 -7 -18 -8 3 -8 19 -1 22 -6 22 -40 0
-30 -4 -40 -17 -43 -16 -3 -15 -6 5 -26 15 -15 30 -21 42 -17 13 4 22 -1 29
-14 17 -31 13 -41 -16 -42 -27 -1 -26 -1 5 -9 18 -4 36 -10 39 -14 4 -3 -119
-7 -273 -7 -200 -1 -263 -4 -224 -10 30 -5 129 -10 220 -11 91 -1 157 -4 148
-6 -15 -3 -18 -15 -18 -83 l0 -79 40 0 40 0 0 -40 c0 -22 5 -40 10 -40 6 0 10
-18 10 -40 0 -22 -4 -40 -10 -40 -5 0 -10 -18 -10 -40 0 -36 3 -40 25 -40 23
0 25 -4 25 -40 0 -29 4 -40 15 -40 10 0 15 -10 15 -34 0 -34 -1 -35 -42 -39
-41 -3 -41 -4 10 -5 28 -1 52 -6 52 -12 0 -5 -4 -10 -10 -10 -17 0 -11 -21 13
-41 22 -18 19 -18 -198 -19 -121 0 -229 -3 -240 -6 -43 -11 -46 -34 -45 -270
0 -137 5 -234 11 -248 19 -41 47 -46 287 -47 241 -1 409 -14 242 -19 -88 -2
-89 -4 -5 -16 41 -5 46 -8 28 -15 -21 -8 -22 -9 -5 -51 9 -24 20 -44 24 -46 5
-2 8 -57 8 -123 l0 -119 25 0 c23 0 25 -4 25 -40 l0 -40 -40 0 c-48 0 -50 -10
-10 -43 l30 -26 2 -168 2 -168 6 165 6 165 3 -155 c4 -186 2 -244 -10 -248 -5
-2 -9 -39 -9 -83 0 -75 -1 -79 -22 -80 l-23 0 23 -11 c28 -14 28 -42 0 -56
-23 -10 -23 -11 -2 -11 21 -1 21 -6 26 -205 4 -167 8 -208 22 -227 13 -20 16
-51 14 -199 -1 -167 -1 -171 -9 -75 -4 55 -5 128 -2 163 4 43 2 62 -6 62 -12
0 -13 -6 -15 -238 -1 -150 0 -162 17 -162 16 0 18 -8 15 -77 -2 -61 -6 -78
-18 -78 -10 0 -16 -13 -18 -42 -3 -38 -6 -43 -28 -43 -22 0 -24 -4 -24 -46 0
-27 4 -43 10 -39 6 4 10 -10 10 -34 0 -36 -3 -40 -28 -44 -19 -3 -14 -4 16 -6
30 -1 42 -5 42 -16 0 -11 -11 -15 -40 -15 -22 0 -40 -4 -40 -10 0 -5 18 -10
40 -10 22 0 40 -4 40 -10 0 -5 -13 -10 -30 -10 -28 0 -30 -2 -30 -40 0 -22 -4
-40 -10 -40 -5 0 -10 18 -10 40 0 22 -4 40 -10 40 -6 0 -10 -46 -10 -118 0
-115 1 -119 24 -130 19 -8 23 -17 22 -49 -1 -34 3 -40 34 -56 l35 -17 -35 6
c-47 8 -53 13 -47 35 3 10 1 22 -4 25 -5 3 -9 -13 -9 -36 0 -23 3 -39 8 -36 4
2 23 1 42 -4 l35 -8 -37 -1 c-50 -1 -55 -16 -19 -47 39 -32 39 -44 1 -44 -28
0 -30 -2 -30 -40 0 -29 4 -40 15 -40 11 0 15 -11 15 -40 0 -29 -4 -40 -15 -40
-22 0 -19 -8 15 -37 33 -27 38 -43 16 -43 -11 0 -16 -14 -18 -47 -2 -29 -8
-48 -17 -51 -8 -3 -11 0 -7 7 4 6 2 11 -3 11 -6 0 -11 -5 -11 -11 0 -6 -7 -9
-15 -5 -8 3 -15 1 -15 -5 0 -6 -8 -8 -18 -5 -9 3 -33 6 -52 8 -33 3 -35 1 -41
-34 -3 -21 -3 -38 1 -38 4 0 5 -14 2 -30 -4 -25 -1 -30 17 -30 18 0 21 6 21
44 0 42 13 66 28 52 3 -4 5 -24 4 -46 -3 -35 0 -41 24 -50 15 -6 29 -8 32 -5
3 3 0 5 -7 5 -8 0 -11 15 -9 47 4 57 25 70 25 16 1 -70 2 -71 24 -66 18 5 20
13 18 62 -1 60 7 94 22 85 5 -3 4 -14 -2 -26 -11 -20 -9 -21 20 -15 17 4 31 3
31 -2 0 -5 -13 -11 -30 -14 -25 -6 -30 -11 -30 -37 0 -18 6 -33 15 -36 22 -9
18 -23 -5 -17 -19 5 -20 0 -20 -81 0 -70 -3 -86 -15 -86 -13 0 -15 -24 -15
-154 0 -85 3 -156 8 -159 4 -2 3 -3 -3 -2 -5 1 -20 -1 -33 -6 -17 -6 -22 -16
-22 -44 0 -24 -4 -35 -15 -35 -11 0 -15 -11 -15 -40 l0 -40 -40 0 -40 0 0 -54
0 -55 -41 -3 c-41 -3 -72 -28 -56 -45 5 -4 58 -7 120 -6 160 1 98 -5 -168 -17
-427 -19 -797 -30 -1765 -50 -531 -11 -1218 -27 -1527 -35 -310 -8 -818 -22
-1130 -30 -313 -8 -656 -17 -763 -20 -107 -3 -481 -12 -830 -21 -580 -13 -972
-24 -1935 -55 -560 -17 -1048 -26 -1448 -25 l-377 1 0 -32 0 -33 5120 0 5120
0 0 160 0 160 -40 0 c-22 0 -40 4 -40 9 0 14 37 23 60 16 20 -6 20 1 20 3664
l0 3671 -5120 0 -5120 0 0 -370z m623 103 c-13 -2 -35 -2 -50 0 -16 2 -5 4 22
4 28 0 40 -2 28 -4z m1364 -80 c-2 -16 -4 -3 -4 27 0 30 2 43 4 28 2 -16 2
-40 0 -55z m-142 57 c3 -6 -1 -7 -9 -4 -18 7 -21 14 -7 14 6 0 13 -4 16 -10z
m923 1 c10 -6 8 -10 -9 -14 -24 -7 -39 -1 -39 14 0 11 30 12 48 0z m49 -81
c-6 -31 -15 -50 -23 -50 -8 0 -14 2 -14 4 0 9 39 96 43 96 2 0 0 -22 -6 -50z
m290 -2 c-2 -13 -4 -5 -4 17 -1 22 1 32 4 23 2 -10 2 -28 0 -40z m60 -10 c-2
-13 -4 -5 -4 17 -1 22 1 32 4 23 2 -10 2 -28 0 -40z m-40 0 c-3 -8 -6 -5 -6 6
-1 11 2 17 5 13 3 -3 4 -12 1 -19z m60 0 c-3 -8 -6 -5 -6 6 -1 11 2 17 5 13 3
-3 4 -12 1 -19z m-57 -22 c0 -3 -4 -8 -10 -11 -5 -3 -10 -1 -10 4 0 6 5 11 10
11 6 0 10 -2 10 -4z m5540 -36 c0 -5 -7 -10 -16 -10 -8 0 -12 5 -9 10 3 6 10
10 16 10 5 0 9 -4 9 -10z m60 0 c0 -5 -4 -10 -10 -10 -5 0 -10 5 -10 10 0 6 5
10 10 10 6 0 10 -4 10 -10z m-573 -30 c2 -17 -4 -20 -38 -20 -42 0 -42 0 -33
24 4 10 18 16 38 16 25 0 32 -5 33 -20z m-7444 3 c-13 -2 -35 -2 -50 0 -16 2
-5 4 22 4 28 0 40 -2 28 -4z m185 -10 c-10 -2 -26 -2 -35 0 -10 3 -2 5 17 5
19 0 27 -2 18 -5z m7832 -3 c0 -5 -2 -10 -4 -10 -3 0 -8 5 -11 10 -3 6 -1 10
4 10 6 0 11 -4 11 -10z m-830 -10 c0 -5 -4 -10 -9 -10 -6 0 -13 5 -16 10 -3 6
1 10 9 10 9 0 16 -4 16 -10z m-7051 -69 c43 -60 15 -111 -61 -111 -61 0 -85
53 -51 111 14 24 24 29 54 29 30 0 42 -6 58 -29z m72 -76 c27 4 37 -8 40 -50
l4 -40 -42 -3 c-24 -2 -43 1 -43 6 0 5 -20 7 -44 5 -54 -6 -109 4 -86 16 19
10 95 22 86 14 -3 -3 -23 -9 -43 -13 l-38 -8 48 -1 c27 0 54 4 60 12 12 12 15
22 25 97 l6 45 6 -41 c4 -30 9 -40 21 -39z m10 35 c5 0 9 -4 9 -8 0 -5 -7 -9
-15 -9 -10 0 -15 10 -14 31 1 24 3 26 6 9 2 -13 9 -23 14 -23z m6 18 c-3 -8
-6 -5 -6 6 -1 11 2 17 5 13 3 -3 4 -12 1 -19z m68 11 c-7 -11 -35 -12 -35 -1
0 4 9 8 20 9 11 1 18 -2 15 -8z m25 -16 c0 -21 -3 -24 -9 -14 -5 8 -7 20 -4
28 8 21 13 15 13 -14z m-483 -25 c-3 -7 -5 -2 -5 12 0 14 2 19 5 13 2 -7 2
-19 0 -25z m-99 -4 c2 -1 -8 -1 -21 0 -15 0 -23 6 -20 14 4 10 9 10 22 0 9 -7
17 -13 19 -14z m533 -24 c5 0 9 -7 9 -15 0 -8 -4 -15 -9 -15 -10 0 -21 36 -20
60 1 8 4 5 6 -7 2 -13 9 -23 14 -23z m66 10 c-4 -17 0 -20 34 -20 21 0 39 -4
39 -10 0 -13 -77 -13 -85 0 -7 11 3 50 12 50 3 0 3 -9 0 -20z m279 -7 c-10
-10 -19 5 -10 18 6 11 8 11 12 0 2 -7 1 -15 -2 -18z m-719 -35 c-3 -7 -5 -2
-5 12 0 14 2 19 5 13 2 -7 2 -19 0 -25z m423 -23 c0 -8 -7 -15 -15 -15 -8 0
-15 7 -15 15 0 8 7 15 15 15 8 0 15 -7 15 -15z m-453 -17 c-3 -8 -6 -5 -6 6
-1 11 2 17 5 13 3 -3 4 -12 1 -19z m7878 -8 l-30 -8 28 -1 c16 -1 27 -7 27
-15 0 -16 -27 -29 -35 -16 -3 5 3 11 12 13 14 4 13 5 -4 6 -13 0 -23 -3 -23
-9 0 -5 -4 -10 -9 -10 -6 0 -8 9 -6 20 3 17 -2 20 -31 20 -21 0 -33 -4 -29
-10 4 -6 11 -8 16 -5 5 4 9 -1 9 -9 0 -9 -4 -16 -10 -16 -5 0 -10 5 -10 10 0
6 -10 10 -22 11 -13 0 -17 3 -9 6 11 5 11 7 0 14 -9 5 20 8 71 8 60 -1 76 -4
55 -9z m530 -10 c-3 -5 -12 -10 -18 -10 -7 0 -6 4 3 10 19 12 23 12 15 0z
m-345 -140 c0 -5 -18 -10 -40 -10 -22 0 -40 5 -40 10 0 6 18 10 40 10 22 0 40
-4 40 -10z m1180 -94 c0 -3 -4 -8 -10 -11 -5 -3 -10 -1 -10 4 0 6 5 11 10 11
6 0 10 -2 10 -4z m-30 -15 c0 -6 -4 -13 -10 -16 -5 -3 -10 1 -10 9 0 9 5 16
10 16 6 0 10 -4 10 -9z m60 -1 c0 -5 -4 -10 -10 -10 -5 0 -10 5 -10 10 0 6 5
10 10 10 6 0 10 -4 10 -10z m117 -66 c-3 -3 -12 -4 -19 -1 -8 3 -5 6 6 6 11 1
17 -2 13 -5z m-12 -83 c-3 -12 -10 -21 -15 -21 -5 0 -4 11 2 25 13 29 23 26
13 -4z m-165 -21 c9 -16 8 -20 -5 -20 -8 0 -15 9 -15 20 0 11 2 20 5 20 2 0 9
-9 15 -20z m200 -1 c0 -5 -4 -9 -10 -9 -5 0 -10 7 -10 16 0 8 5 12 10 9 6 -3
10 -10 10 -16z m-130 -29 c0 -5 -9 -10 -19 -10 -11 0 -28 -3 -38 -7 -16 -6
-16 -5 -4 10 14 18 61 23 61 7z m100 0 c0 -5 -4 -10 -10 -10 -5 0 -10 5 -10
10 0 6 5 10 10 10 6 0 10 -4 10 -10z m99 -1585 c-1 -52 -5 -95 -9 -95 -7 0
-20 97 -20 156 0 24 5 34 15 34 13 0 15 -16 14 -95z m61 0 c0 -52 -3 -95 -7
-95 -9 0 -16 167 -8 181 13 19 15 6 15 -86z m-280 75 c0 -5 -14 -10 -31 -10
-28 0 -30 -2 -27 -32 2 -21 9 -33 18 -34 37 -2 43 -7 15 -13 -26 -5 -30 -11
-33 -44 -2 -24 -8 -37 -15 -34 -8 2 -13 35 -15 90 l-3 87 46 0 c25 0 45 -4 45
-10z m147 -68 c32 -43 3 -102 -52 -102 -39 0 -56 18 -57 61 -2 61 72 89 109
41z m190 -1464 c-2 -13 -4 -3 -4 22 0 25 2 35 4 23 2 -13 2 -33 0 -45z m13
-118 c0 -33 -4 -60 -10 -60 -6 0 -10 27 -10 60 0 33 4 60 10 60 6 0 10 -27 10
-60z m0 -120 c0 -11 -4 -20 -10 -20 -5 0 -10 9 -10 20 0 11 5 20 10 20 6 0 10
-9 10 -20z m-13 -1122 c-2 -13 -4 -3 -4 22 0 25 2 35 4 23 2 -13 2 -33 0 -45z
m-57 -107 c0 -13 -29 -35 -37 -28 -7 8 15 37 28 37 5 0 9 -4 9 -9z m87 -29
c-9 -2 -27 6 -39 18 l-23 22 39 -19 c24 -11 33 -19 23 -21z m-73 -38 c4 -11 2
-15 -8 -11 -8 3 -17 1 -20 -6 -3 -9 -7 -8 -15 3 -8 12 -6 16 12 22 12 3 23 6
23 7 1 1 5 -6 8 -15z m80 -3 c4 -5 -3 -7 -14 -4 -12 3 -20 0 -20 -8 0 -7 -3
-10 -6 -6 -9 9 5 27 21 27 8 0 16 -4 19 -9z m-71 -48 c-26 -5 -31 -23 -8 -23
8 0 15 -4 15 -9 0 -5 -9 -7 -20 -4 -35 9 -23 44 14 42 19 -2 19 -2 -1 -6z m17
-114 c0 -4 -7 -6 -15 -3 -8 4 -15 10 -15 15 0 4 7 6 15 3 8 -4 15 -10 15 -15z
m50 -29 c0 -5 -5 -10 -11 -10 -5 0 -7 5 -4 10 3 6 8 10 11 10 2 0 4 -4 4 -10z
m5 -460 c3 -5 1 -10 -4 -10 -6 0 -11 5 -11 10 0 6 2 10 4 10 3 0 8 -4 11 -10z
m-35 -90 c0 -5 -7 -10 -16 -10 -8 0 -12 5 -9 10 3 6 10 10 16 10 5 0 9 -4 9
-10z m20 -44 c0 -2 -9 -6 -20 -9 -11 -3 -18 -1 -14 4 5 9 34 13 34 5z m-60
-296 c0 -33 -3 -40 -20 -40 -17 0 -20 7 -20 40 0 33 3 40 20 40 17 0 20 -7 20
-40z m-63 -342 c-2 -13 -4 -3 -4 22 0 25 2 35 4 23 2 -13 2 -33 0 -45z m138
-117 c7 -12 -12 -24 -25 -16 -11 7 -4 25 10 25 5 0 11 -4 15 -9z"/>
<path d="M782 7132 c-37 -6 -52 -73 -21 -93 22 -14 65 -10 79 6 18 21 5 45
-25 45 -26 0 -34 -15 -12 -23 6 -2 9 -8 5 -12 -14 -15 -39 5 -36 27 2 16 10
23 25 23 12 0 25 3 28 6 10 11 -19 25 -43 21z"/>
<path d="M9912 4921 c-8 -5 -12 -22 -10 -42 3 -30 7 -34 35 -37 27 -3 33 1 39
21 11 48 -26 82 -64 58z"/>
<path d="M1280 7160 c0 -17 7 -20 39 -20 22 0 41 5 43 10 2 6 41 12 91 13 136
3 102 17 -43 17 -123 0 -130 -1 -130 -20z"/>
<path d="M1580 7170 c0 -5 5 -10 10 -10 6 0 10 5 10 10 0 6 -4 10 -10 10 -5 0
-10 -4 -10 -10z"/>
<path d="M1680 7169 c0 -5 9 -9 20 -9 11 0 20 2 20 4 0 2 -9 6 -20 9 -11 3
-20 1 -20 -4z"/>
<path d="M1768 7163 c7 -3 16 -2 19 1 4 3 -2 6 -13 5 -11 0 -14 -3 -6 -6z"/>
<path d="M1350 7109 c0 -5 5 -7 10 -4 6 3 10 8 10 11 0 2 -4 4 -10 4 -5 0 -10
-5 -10 -11z"/>
<path d="M1645 7110 c-3 -5 -4 -14 0 -19 3 -5 1 -12 -5 -16 -5 -3 -10 -2 -10
3 0 12 -34 11 -42 -2 -4 -7 -14 -4 -26 8 -19 16 -21 16 -29 1 -9 -15 -11 -15
-26 -1 -10 10 -17 12 -19 5 -3 -8 -17 -9 -52 -1 -55 12 -63 4 -51 -56 l8 -37
9 33 c5 17 11 32 14 32 4 0 4 -6 1 -12 -2 -7 -1 -22 4 -33 6 -16 8 -17 8 -3 1
14 13 16 88 15 61 -1 88 2 88 10 0 6 3 15 8 19 4 4 7 -5 7 -21 0 -22 3 -25 14
-16 11 9 15 9 19 -1 3 -7 6 13 6 45 1 56 -2 66 -14 47z m-195 -56 c0 -8 -5
-12 -10 -9 -6 4 -8 11 -5 16 9 14 15 11 15 -7z m67 -10 c-3 -3 -12 -4 -19 -1
-8 3 -5 6 6 6 11 1 17 -2 13 -5z"/>
<path d="M1701 7104 c0 -11 3 -14 6 -6 3 7 2 16 -1 19 -3 4 -6 -2 -5 -13z"/>
<path d="M2060 7110 c-9 -6 -10 -10 -3 -10 6 0 15 5 18 10 8 12 4 12 -15 0z"/>
<path d="M2209 7078 c-2 -24 -1 -61 2 -83 5 -29 7 -18 8 43 1 87 -5 110 -10
40z"/>
<path d="M1720 7100 c0 -5 5 -10 11 -10 5 0 7 5 4 10 -3 6 -8 10 -11 10 -2 0
-4 -4 -4 -10z"/>
<path d="M1903 7088 c-19 -25 -21 -45 -5 -59 15 -13 17 -11 18 28 1 47 1 48
-13 31z"/>
<path d="M2358 7079 c-10 -5 -18 -17 -18 -26 0 -15 2 -14 19 1 10 9 25 14 35
10 9 -3 16 -2 16 4 0 5 -7 13 -16 16 -19 7 -15 8 -36 -5z"/>
<path d="M3758 7084 c-5 -4 -8 -41 -7 -83 1 -66 2 -72 10 -43 11 38 8 138 -3
126z"/>
<path d="M1670 7044 c0 -38 19 -39 21 -1 1 21 2 19 15 -23 5 -13 6 -13 15 0 7
12 10 11 15 -7 14 -49 62 -9 52 44 -5 25 -55 31 -61 6 -4 -17 -5 -17 -6 0 -1
11 -9 17 -26 17 -22 0 -25 -4 -25 -36z m93 -9 c-7 -21 -13 -19 -13 6 0 11 4
18 10 14 5 -3 7 -12 3 -20z"/>
<path d="M2043 7062 c12 -13 14 -21 6 -29 -17 -17 -1 -37 17 -22 11 9 18 9 29
-1 20 -17 31 -5 15 16 -12 13 -11 17 1 24 11 8 11 12 1 22 -10 10 -15 10 -22
-2 -7 -12 -12 -12 -22 -2 -6 6 -19 12 -27 12 -12 0 -11 -3 2 -18z"/>
<path d="M2560 7042 c0 -27 4 -41 10 -37 6 4 8 10 5 15 -3 5 -1 11 5 15 5 3
10 -3 10 -13 0 -19 24 -32 59 -32 11 0 9 4 -5 15 -19 14 -18 14 4 15 13 0 22
-6 22 -15 0 -8 5 -15 10 -15 6 0 10 11 10 25 0 14 5 25 10 25 6 0 10 -12 10
-27 0 -29 15 -22 23 12 3 15 5 13 6 -8 1 -16 5 -26 11 -22 6 4 8 10 6 14 -3 4
-1 13 5 21 6 11 9 8 9 -13 0 -16 3 -26 8 -23 4 2 25 1 47 -3 22 -4 46 -6 53
-3 16 5 16 32 0 32 -9 0 -8 4 2 10 17 11 18 11 -35 16 -23 2 -42 -2 -47 -9 -6
-9 -8 -9 -8 1 0 10 -16 13 -63 11 -35 -1 -69 1 -75 5 -11 6 -15 1 -14 -15 1
-3 -6 -6 -14 -6 -7 0 -14 4 -14 9 0 4 -5 8 -11 8 -7 0 -18 8 -25 18 -12 15
-13 12 -14 -26z m273 -28 c-8 -21 -23 -17 -23 6 0 13 5 18 14 14 8 -3 12 -12
9 -20z m47 -10 c0 -2 -7 -4 -15 -4 -8 0 -15 4 -15 10 0 5 7 7 15 4 8 -4 15 -8
15 -10z"/>
<path d="M2526 7062 c-2 -4 -1 -23 4 -42 4 -19 8 -26 9 -15 1 11 4 30 7 43 6
21 -9 32 -20 14z"/>
<path d="M5273 6975 c-1 -61 2 -86 6 -65 4 19 4 64 0 100 -5 59 -6 56 -6 -35z"/>
<path d="M1832 7051 c2 -7 7 -12 11 -12 12 1 9 15 -3 20 -7 2 -11 -2 -8 -8z"/>
<path d="M2898 7054 c-3 -2 -3 -17 0 -33 3 -26 8 -29 41 -29 35 -1 38 1 36 26
-1 29 -35 46 -35 18 0 -8 -5 -18 -11 -22 -7 -4 -9 0 -5 14 6 18 -14 38 -26 26z
m59 -46 c-3 -8 -6 -5 -6 6 -1 11 2 17 5 13 3 -3 4 -12 1 -19z"/>
<path d="M2988 7055 c-9 -9 4 -65 16 -65 8 0 11 12 8 35 -4 32 -11 42 -24 30z"/>
<path d="M3127 7053 c-4 -3 -7 -19 -7 -34 0 -31 36 -51 50 -28 7 10 11 10 24
0 20 -17 46 -7 47 16 0 14 2 13 9 -4 10 -24 34 -31 45 -13 4 6 13 5 26 -3 19
-12 19 -12 -3 -19 -22 -6 -22 -6 3 -7 22 -1 27 4 31 29 3 16 2 33 -1 37 -7 10
-161 13 -161 3 0 -4 -12 -6 -27 -4 -16 2 -22 1 -15 -2 17 -8 15 -24 -4 -24
-26 0 -13 43 16 51 l25 7 -26 1 c-14 1 -29 -2 -32 -6z m96 -37 c6 -16 -2 -28
-14 -20 -12 7 -11 34 0 34 5 0 11 -6 14 -14z m57 -7 c0 -11 -4 -17 -10 -14 -5
3 -10 13 -10 21 0 8 5 14 10 14 6 0 10 -9 10 -21z m60 -1 c0 -16 -3 -19 -11
-11 -6 6 -8 16 -5 22 11 17 16 13 16 -11z"/>
<path d="M3367 7053 c-3 -5 -2 -24 1 -43 4 -29 6 -32 13 -15 6 17 8 17 8 3 1
-12 9 -18 24 -17 12 0 16 3 10 6 -7 2 -13 17 -14 31 0 15 -3 21 -6 15 -8 -21
-25 -14 -18 7 6 19 -9 29 -18 13z"/>
<path d="M3866 7053 c-3 -3 -6 -26 -6 -50 0 -36 3 -43 19 -43 14 0 18 5 14 20
-6 21 13 28 20 8 3 -10 7 -10 20 1 15 12 17 11 17 -8 0 -12 6 -21 15 -21 11 0
15 11 15 36 0 19 -4 33 -9 30 -5 -4 -11 0 -14 6 -3 11 -7 11 -19 0 -12 -10
-20 -9 -40 8 -14 10 -28 16 -32 13z"/>
<path d="M2393 7031 c17 -6 18 -8 3 -20 -14 -12 -19 -11 -36 4 -11 10 -23 15
-28 11 -11 -12 37 -46 56 -39 48 17 58 53 15 52 -23 0 -24 -2 -10 -8z"/>
<path d="M3420 7019 c0 -11 4 -18 10 -14 5 3 7 12 3 20 -7 21 -13 19 -13 -6z"/>
<path d="M3600 7025 c9 -11 10 -18 1 -28 -14 -18 -2 -30 16 -16 9 8 17 8 26 0
8 -6 17 -8 20 -4 9 9 9 23 0 22 -22 -4 -24 3 -8 21 14 16 15 20 4 20 -8 0 -20
-5 -26 -11 -8 -8 -13 -8 -17 0 -4 6 -12 11 -18 11 -7 0 -6 -6 2 -15z"/>
<path d="M4073 7000 c0 -25 2 -35 4 -22 2 12 2 32 0 45 -2 12 -4 2 -4 -23z"/>
<path d="M4150 7001 l0 -39 50 1 c50 1 65 12 54 42 -7 18 -40 20 -47 3 -4 -10
-6 -10 -6 0 -1 6 -10 12 -22 12 -11 0 -17 5 -14 10 3 6 1 10 -4 10 -6 0 -11
-17 -11 -39z m35 -11 c0 -7 -6 -15 -12 -17 -8 -3 -13 4 -13 17 0 13 5 20 13
18 6 -3 12 -11 12 -18z m55 0 c0 -11 -4 -20 -10 -20 -5 0 -10 9 -10 20 0 11 5
20 10 20 6 0 10 -9 10 -20z"/>
<path d="M4352 7028 c-7 -7 -11 -28 -11 -47 2 -34 2 -35 6 -6 3 17 10 36 15
43 14 16 5 25 -10 10z"/>
<path d="M4380 7029 c0 -4 6 -10 13 -12 8 -4 9 -8 1 -14 -6 -4 -16 -17 -22
-29 -10 -19 -9 -21 16 -16 24 5 24 6 7 13 -18 6 -19 7 -2 14 21 9 23 52 2 52
-8 0 -15 -4 -15 -8z"/>
<path d="M4427 7007 c-6 -39 -2 -47 24 -47 15 0 19 7 19 38 0 30 -4 38 -19 39
-14 1 -20 -7 -24 -30z m33 -27 c0 -5 -4 -10 -10 -10 -5 0 -10 5 -10 10 0 6 5
10 10 10 6 0 10 -4 10 -10z"/>
<path d="M4519 7033 c-12 -3 -17 -15 -17 -39 0 -29 3 -34 24 -34 23 0 24 3 18
38 -8 43 -5 39 -25 35z m11 -53 c0 -5 -5 -10 -11 -10 -5 0 -7 5 -4 10 3 6 8
10 11 10 2 0 4 -4 4 -10z"/>
<path d="M4559 7029 c-11 -7 -11 -9 4 -9 20 0 20 -1 7 -34 -6 -16 -6 -27 0
-31 6 -4 10 3 10 14 0 11 5 23 10 26 14 9 12 32 -3 38 -8 3 -20 1 -28 -4z"/>
<path d="M4880 7026 c0 -7 -9 -16 -20 -19 -14 -3 -20 -14 -20 -31 0 -21 5 -26
25 -26 23 0 25 4 25 45 0 25 -2 45 -5 45 -3 0 -5 -6 -5 -14z m-8 -51 c0 -5 -5
-11 -11 -13 -6 -2 -11 4 -11 13 0 9 5 15 11 13 6 -2 11 -8 11 -13z"/>
<path d="M5400 6969 c0 -55 3 -69 15 -69 9 0 15 9 16 23 l0 22 9 -22 c5 -13
16 -23 25 -23 12 0 15 14 15 69 l0 69 -40 0 -40 1 0 -70z"/>
<path d="M5621 7005 l-2 -40 -15 28 c-18 34 -34 27 -34 -16 0 -47 20 -72 20
-27 l1 35 19 -35 c18 -33 19 -33 20 -10 1 22 2 23 11 8 16 -28 49 -23 49 6 0
30 -16 42 -34 27 -11 -9 -16 -4 -24 26 l-10 38 -1 -40z"/>
<path d="M6042 7020 c0 -14 2 -19 5 -12 2 6 2 18 0 25 -3 6 -5 1 -5 -13z"/>
<path d="M6642 7020 c0 -14 2 -19 5 -12 2 6 2 18 0 25 -3 6 -5 1 -5 -13z"/>
<path d="M6701 7024 c0 -11 3 -14 6 -6 3 7 2 16 -1 19 -3 4 -6 -2 -5 -13z"/>
<path d="M3055 7020 c-3 -5 -1 -10 4 -10 6 0 11 5 11 10 0 6 -2 10 -4 10 -3 0
-8 -4 -11 -10z"/>
<path d="M4617 7023 c-4 -3 -7 -21 -7 -39 0 -25 4 -32 18 -29 9 1 25 -2 35 -7
15 -8 17 -3 17 37 0 25 -4 45 -9 45 -6 0 -8 -15 -7 -32 2 -18 1 -25 -1 -15 -2
9 -11 17 -19 17 -17 0 -19 16 -1 23 8 4 6 6 -4 6 -9 1 -19 -2 -22 -6z m23 -43
c0 -5 -4 -10 -10 -10 -5 0 -10 5 -10 10 0 6 5 10 10 10 6 0 10 -4 10 -10z"/>
<path d="M5160 7015 c0 -13 -6 -16 -25 -11 -25 6 -35 -7 -15 -19 8 -5 8 -11 1
-19 -14 -17 -2 -29 15 -15 8 7 14 7 19 -1 12 -19 27 -11 20 11 -5 13 -2 25 6
29 9 6 9 12 -4 25 -16 15 -17 15 -17 0z"/>
<path d="M4090 6988 l1 -33 14 30 c12 26 13 27 14 8 1 -35 21 -38 21 -4 0 26
-4 31 -25 31 -22 0 -25 -4 -25 -32z"/>
<path d="M4260 7008 c0 -4 5 -8 12 -8 9 0 9 -3 0 -12 -18 -18 -15 -23 12 -24
21 -2 24 2 22 24 -2 18 -9 26 -25 27 -11 1 -21 -2 -21 -7z"/>
<path d="M4930 7011 c0 -6 -7 -11 -15 -11 -9 0 -15 -9 -15 -25 0 -14 4 -25 9
-25 5 0 7 9 4 20 -3 11 0 20 6 20 6 0 11 -9 11 -20 0 -11 4 -20 9 -20 5 0 7
10 4 23 -4 18 -3 19 6 7 8 -11 11 -12 11 -2 0 7 -7 20 -15 28 -8 9 -15 11 -15
5z"/>
<path d="M6681 7004 c0 -11 3 -14 6 -6 3 7 2 16 -1 19 -3 4 -6 -2 -5 -13z"/>
<path d="M1150 6990 c0 -11 5 -20 10 -20 6 0 10 9 10 20 0 11 -4 20 -10 20 -5
0 -10 -9 -10 -20z"/>
<path d="M1213 7003 c15 -2 37 -2 50 0 12 2 0 4 -28 4 -27 0 -38 -2 -22 -4z"/>
<path d="M4800 6996 c0 -8 -6 -17 -12 -19 -10 -4 -9 -8 2 -16 26 -19 40 -12
40 19 0 20 -5 30 -15 30 -8 0 -15 -6 -15 -14z"/>
<path d="M5739 7002 c-5 -27 -4 -64 3 -68 4 -3 8 5 9 18 l0 23 9 -22 c13 -33
20 -28 20 15 0 31 -4 38 -20 39 -11 1 -21 -1 -21 -5z"/>
<path d="M5791 6970 c-1 -44 0 -45 29 -45 28 0 30 3 30 35 0 26 -3 31 -10 20
-6 -9 -10 -11 -10 -3 0 7 -6 10 -14 7 -8 -3 -16 2 -19 13 -3 10 -5 -2 -6 -27z"/>
<path d="M6883 7002 c-27 -4 -35 -24 -27 -73 7 -39 23 -54 25 -21 0 10 3 12 6
5 2 -7 19 -13 36 -14 26 0 28 -2 13 -8 -19 -7 -19 -8 2 -13 13 -4 28 0 37 9
16 15 20 80 7 99 -8 12 -63 21 -99 16z m37 -46 c0 -3 -4 -8 -10 -11 -5 -3 -10
-1 -10 4 0 6 5 11 10 11 6 0 10 -2 10 -4z"/>
<path d="M5700 6965 c0 -19 5 -35 10 -35 6 0 10 16 10 35 0 19 -4 35 -10 35
-5 0 -10 -16 -10 -35z"/>
<path d="M4728 6983 c7 -3 16 -2 19 1 4 3 -2 6 -13 5 -11 0 -14 -3 -6 -6z"/>
<path d="M4972 6960 c0 -19 2 -27 5 -17 2 9 2 25 0 35 -3 9 -5 1 -5 -18z"/>
<path d="M6647 6973 c-11 -11 -17 -13 -17 -5 0 7 -7 12 -16 12 -11 0 -14 -6
-9 -20 4 -12 1 -28 -7 -37 -12 -15 -10 -16 20 -10 18 4 32 2 32 -3 0 -6 4 -10
8 -10 5 0 9 20 9 45 0 25 -1 45 -2 45 0 0 -8 -8 -18 -17z"/>
<path d="M6676 6963 c-6 -14 -5 -15 5 -6 7 7 10 15 7 18 -3 3 -9 -2 -12 -12z"/>
<path d="M7061 6939 c-12 -35 -6 -53 10 -29 8 13 10 13 18 0 15 -22 21 -8 13
25 -11 40 -28 42 -41 4z"/>
<path d="M7628 6951 c-9 -15 -19 -18 -50 -14 -28 4 -38 2 -38 -8 0 -11 -2 -11
-11 1 -8 12 -9 10 -7 -9 3 -27 28 -42 28 -17 0 8 5 18 12 22 6 4 8 3 5 -2 -3
-6 -2 -16 3 -24 7 -12 13 -12 27 -4 14 9 26 8 51 -4 29 -14 34 -14 48 0 9 9
14 24 12 34 -4 16 -7 15 -16 -8 -6 -16 -16 -28 -22 -28 -14 0 -13 17 3 23 10
4 10 7 0 18 -19 20 -16 28 9 21 14 -3 19 -2 14 6 -11 19 -55 14 -68 -7z"/>
<path d="M7196 6945 c-6 -17 -9 -17 -17 -5 -8 12 -9 9 -5 -9 3 -14 0 -31 -6
-38 -8 -10 -7 -13 5 -13 16 0 41 52 35 71 -3 8 -7 6 -12 -6z"/>
<path d="M7286 6948 c5 -7 0 -9 -14 -6 -16 5 -22 2 -22 -10 0 -13 -3 -12 -15
4 -14 18 -14 18 -15 -8 0 -23 4 -28 25 -28 18 0 23 4 18 16 -4 12 -2 15 8 12
8 -3 13 -12 11 -21 -2 -11 2 -15 12 -11 17 7 16 52 -2 59 -8 3 -10 0 -6 -7z"/>
<path d="M7321 6923 c1 -23 3 -29 6 -15 2 12 9 22 15 22 5 0 8 -7 5 -15 -4 -8
-2 -17 3 -20 6 -4 10 5 10 19 0 15 -8 30 -20 36 -18 10 -20 8 -19 -27z"/>
<path d="M7370 6930 c0 -16 5 -30 10 -30 6 0 10 14 10 30 0 17 -4 30 -10 30
-5 0 -10 -13 -10 -30z"/>
<path d="M7432 6930 c-6 -16 -7 -32 -2 -35 4 -3 10 1 13 7 3 10 7 10 20 -1 19
-15 22 -5 7 33 -13 34 -26 33 -38 -4z"/>
<path d="M7490 6925 c0 -19 5 -35 10 -35 6 0 10 16 10 35 0 19 -4 35 -10 35
-5 0 -10 -16 -10 -35z"/>
<path d="M7744 6936 c-3 -14 -1 -33 6 -43 10 -16 11 -15 6 6 -3 13 -1 33 5 43
6 12 6 18 0 18 -6 0 -13 -11 -17 -24z"/>
<path d="M7788 6949 c-33 -19 -15 -69 24 -69 18 0 39 29 37 52 0 7 -4 4 -9 -7
-7 -17 -9 -17 -9 -2 -1 9 -9 17 -18 18 -15 0 -15 2 2 9 13 6 15 9 5 9 -8 0
-23 -4 -32 -10z m-1 -41 c-3 -7 -5 -2 -5 12 0 14 2 19 5 13 2 -7 2 -19 0 -25z
m33 12 c0 -5 -4 -10 -10 -10 -5 0 -10 5 -10 10 0 6 5 10 10 10 6 0 10 -4 10
-10z m7 -26 c-3 -3 -12 -4 -19 -1 -8 3 -5 6 6 6 11 1 17 -2 13 -5z"/>
<path d="M1128 6943 c6 -2 18 -2 25 0 6 3 1 5 -13 5 -14 0 -19 -2 -12 -5z"/>
<path d="M7122 6927 c-1 -16 4 -23 18 -24 15 -1 20 5 20 23 0 32 -35 34 -38 1z"/>
<path d="M8065 6940 c-4 -7 -1 -16 6 -21 12 -8 12 -11 -1 -18 -8 -6 -11 -13
-7 -17 3 -4 13 -1 21 5 10 8 16 9 21 1 12 -19 26 -11 15 9 -7 13 -7 22 0 26
20 12 10 26 -11 14 -16 -8 -23 -8 -29 1 -6 9 -9 9 -15 0z"/>
<path d="M7913 6915 c-6 -7 -8 -18 -3 -26 7 -11 10 -10 15 3 10 24 2 38 -12
23z"/>
<path d="M0 6880 c0 -12 7 -20 18 -20 9 0 24 -5 32 -11 12 -8 7 -9 -17 -6 -20
2 -33 -1 -33 -7 0 -7 15 -10 39 -8 24 2 42 -1 46 -9 5 -8 4 -10 -3 -5 -7 4
-26 4 -45 1 -30 -6 -32 -9 -32 -45 0 -21 4 -42 8 -46 4 -4 7 -2 7 5 0 8 6 11
16 7 8 -3 24 -1 34 4 11 6 21 6 24 1 4 -5 0 -12 -6 -14 -8 -3 -6 -6 5 -6 10
-1 17 6 18 17 0 14 2 14 9 -3 7 -16 9 -17 9 -3 1 12 8 15 25 12 19 -3 26 2 34
26 6 16 7 30 3 30 -4 0 -7 10 -7 22 1 14 -6 24 -17 26 -16 3 -17 -1 -12 -35 4
-31 4 -34 -5 -15 -5 13 -14 21 -19 18 -5 -3 -11 4 -15 17 -10 39 -7 48 17 47
12 -1 29 -2 37 -1 13 1 13 2 0 11 -8 5 -50 10 -92 10 -71 0 -78 -2 -78 -20z
m63 -7 c-7 -2 -21 -2 -30 0 -10 3 -5 5 12 5 17 0 24 -2 18 -5z m33 -30 c-11
-11 -17 4 -9 23 7 18 8 18 11 1 2 -10 1 -21 -2 -24z m34 -69 c0 -8 -5 -12 -10
-9 -6 4 -8 11 -5 16 9 14 15 11 15 -7z"/>
<path d="M8327 6883 c-4 -3 -7 -11 -7 -17 0 -6 5 -5 12 2 6 6 9 14 7 17 -3 3
-9 2 -12 -2z"/>
<path d="M230 6870 c-8 -5 -11 -12 -7 -16 4 -4 13 -2 19 4 15 15 7 24 -12 12z"/>
<path d="M7868 6873 c6 -2 18 -2 25 0 6 3 1 5 -13 5 -14 0 -19 -2 -12 -5z"/>
<path d="M131 6854 c0 -11 3 -14 6 -6 3 7 2 16 -1 19 -3 4 -6 -2 -5 -13z"/>
<path d="M8350 6856 c0 -8 5 -18 10 -21 6 -3 10 1 10 9 0 8 -4 18 -10 21 -5 3
-10 -1 -10 -9z"/>
<path d="M277 6798 c1 -35 1 -37 -5 -14 -8 35 -52 49 -52 17 0 -11 -7 -26 -15
-35 -17 -17 -20 -36 -5 -36 6 0 10 4 10 10 0 6 9 6 25 0 15 -6 27 -6 30 0 3 5
12 7 20 3 11 -4 15 3 16 28 l1 34 10 -32 c12 -37 25 -41 44 -15 13 16 13 16
14 0 0 -18 9 -22 44 -18 11 1 15 -3 12 -9 -4 -6 -2 -11 4 -11 12 0 50 82 50
107 0 29 -27 -5 -34 -42 -7 -36 -20 -43 -46 -24 -13 9 -12 10 3 5 20 -7 37 22
19 33 -16 9 -82 1 -82 -10 0 -5 -8 -1 -18 9 -10 9 -17 23 -14 30 2 7 -4 12
-15 12 -16 0 -18 -7 -16 -42z"/>
<path d="M8380 6810 c0 -5 9 -10 20 -10 11 0 20 5 20 10 0 6 -9 10 -20 10 -11
0 -20 -4 -20 -10z"/>
<path d="M8305 6780 c3 -5 8 -10 11 -10 2 0 4 5 4 10 0 6 -5 10 -11 10 -5 0
-7 -4 -4 -10z"/>
<path d="M471 6744 c0 -11 3 -14 6 -6 3 7 2 16 -1 19 -3 4 -6 -2 -5 -13z"/>
<path d="M9570 6709 c0 -5 5 -7 10 -4 6 3 10 8 10 11 0 2 -4 4 -10 4 -5 0 -10
-5 -10 -11z"/>
<path d="M9635 6707 c-4 -10 -5 -21 -1 -24 10 -10 18 4 13 24 -4 17 -4 17 -12
0z"/>
<path d="M9672 6690 c0 -14 2 -19 5 -12 2 6 2 18 0 25 -3 6 -5 1 -5 -13z"/>
<path d="M8763 6661 c-3 -12 -13 -21 -25 -21 -15 0 -18 -4 -12 -17 4 -10 8
-27 8 -39 1 -18 7 -21 44 -20 35 1 42 4 39 18 -3 10 1 22 9 29 17 14 9 29 -17
29 -10 0 -19 6 -19 14 0 24 -21 30 -27 7z m27 -52 c0 -5 -7 -9 -15 -9 -15 0
-20 12 -9 23 8 8 24 -1 24 -14z"/>
<path d="M9030 6626 c0 -81 4 -86 66 -86 62 0 63 2 67 80 l2 55 -67 3 -68 3 0
-55z m118 -24 l3 -43 -53 3 -53 3 -1 43 -1 43 51 -3 51 -3 3 -43z"/>
<path d="M9060 6611 c0 -26 14 -41 40 -41 18 0 38 31 33 50 -4 15 -14 20 -39
20 -31 0 -34 -3 -34 -29z m47 -7 c-3 -3 -12 -4 -19 -1 -8 3 -5 6 6 6 11 1 17
-2 13 -5z"/>
<path d="M9332 6663 c-4 -10 -14 -18 -22 -18 -8 0 -15 -4 -16 -10 0 -5 -4 -17
-8 -26 -4 -8 -2 -28 4 -43 9 -25 13 -27 60 -24 28 2 50 7 49 12 0 5 5 12 12
17 21 12 -1 63 -29 67 -14 2 -22 10 -22 23 0 24 -18 25 -28 2z"/>
<path d="M9561 6644 c-23 -24 -24 -27 -7 -36 16 -9 16 -11 1 -22 -14 -10 -14
-13 0 -31 14 -18 16 -19 28 -4 10 14 14 14 25 3 18 -20 33 -17 39 6 7 27 23
25 24 -2 1 -17 3 -18 6 -6 6 23 -26 88 -43 88 -8 0 -14 7 -14 15 0 23 -32 17
-59 -11z"/>
<path d="M0 6579 c0 -52 2 -60 18 -57 9 2 15 11 13 19 -2 8 -4 33 -4 57 0 28
-5 42 -14 42 -9 0 -13 -17 -13 -61z"/>
<path d="M47 6508 c-2 -73 -7 -145 -12 -160 -7 -25 -5 -28 19 -28 19 0 32 10
50 38 22 33 25 49 27 157 l3 120 -42 3 -41 3 -4 -133z"/>
<path d="M157 6514 c4 -129 11 -154 43 -154 22 0 37 17 45 55 7 32 14 52 36
100 14 29 14 27 17 -46 2 -60 7 -80 22 -94 23 -21 55 -15 88 15 17 16 22 17
22 6 0 -9 14 -23 31 -32 39 -20 83 -13 133 21 l35 24 30 -29 c35 -35 49 -37
84 -10 14 11 27 20 30 20 2 0 14 -9 27 -20 28 -24 67 -26 98 -4 20 14 24 14
44 0 28 -20 62 -20 77 -2 11 13 17 12 46 -6 19 -11 39 -17 45 -13 22 13 8 -14
-24 -48 -47 -50 -50 -71 -16 -107 35 -37 78 -40 115 -7 28 24 44 78 45 152 0
27 7 49 23 66 23 26 40 53 65 102 22 44 37 28 34 -35 -6 -94 43 -150 103 -118
17 9 28 9 43 1 30 -16 73 -14 93 5 16 14 20 14 49 -7 26 -20 34 -21 50 -11 15
9 26 9 44 1 32 -15 56 -5 56 23 0 32 23 128 31 128 4 0 10 -26 14 -57 8 -64
18 -83 46 -83 12 0 21 9 24 28 3 15 11 45 18 67 10 34 12 36 15 15 10 -92 31
-130 72 -130 26 0 60 38 60 67 0 30 -18 29 -32 -2 -23 -51 -38 -18 -38 87 0
87 -5 98 -45 98 -28 0 -34 -5 -48 -37 -14 -34 -15 -36 -16 -12 -1 29 -29 59
-54 59 -9 0 -22 -9 -31 -21 l-14 -21 -12 22 c-7 14 -19 20 -33 18 -20 -3 -22
-10 -28 -88 -6 -93 -14 -120 -35 -120 -15 0 -17 16 -15 120 1 36 -2 70 -6 76
-4 6 -38 14 -74 18 -56 6 -69 5 -84 -10 -27 -28 -45 -79 -45 -131 0 -26 -5
-55 -10 -63 -19 -29 -31 12 -28 100 l3 85 -39 3 c-21 2 -45 10 -53 18 -35 34
-76 4 -66 -49 6 -29 -13 -87 -28 -87 -5 0 -9 29 -9 65 0 43 -4 67 -13 70 -6 3
-43 6 -81 8 -69 2 -70 2 -93 -32 -17 -26 -23 -48 -23 -91 0 -61 -20 -104 -36
-79 -5 8 -8 53 -7 101 1 56 -3 90 -10 96 -7 5 -39 13 -73 17 -83 9 -109 -12
-129 -109 -15 -76 -25 -92 -51 -82 -14 5 -16 17 -12 84 3 42 9 84 12 93 6 14
-1 18 -38 21 l-46 3 0 -66 c0 -41 -5 -72 -14 -85 -14 -19 -15 -19 -22 0 -4 11
-23 33 -41 49 -26 23 -31 33 -22 43 6 7 9 23 7 36 -2 18 -10 24 -36 26 -42 4
-61 -18 -62 -70 0 -35 -36 -118 -51 -118 -15 0 -17 16 -10 77 10 82 -6 113
-60 113 -25 0 -71 -39 -82 -70 -3 -8 -6 4 -6 28 -1 38 -4 42 -25 42 -13 0 -31
2 -38 5 -12 5 -14 -15 -11 -121z m743 -16 c-1 -61 -15 -98 -38 -98 -15 0 -22
25 -22 76 0 55 14 84 40 84 18 0 20 -7 20 -62z m254 24 c17 -62 -18 -148 -50
-121 -20 16 -18 108 2 137 20 29 36 24 48 -16z m434 16 c19 -19 14 -109 -8
-138 -18 -24 -20 -24 -37 -7 -22 22 -22 97 1 133 18 27 27 29 44 12z m-1074
-73 c9 -14 14 -30 11 -35 -6 -10 -88 -10 -82 0 1 3 9 17 16 33 18 34 34 34 55
2z m656 -184 c0 -52 -42 -101 -60 -70 -9 14 2 42 28 72 20 22 32 22 32 -2z"/>
<path d="M8492 6447 c-12 -13 -25 -37 -28 -55 -5 -26 -1 -36 25 -63 27 -26 37
-30 65 -25 24 5 37 2 46 -9 13 -16 40 -20 40 -6 0 5 -6 14 -14 20 -7 6 -16 36
-18 66 -5 63 -28 95 -68 95 -15 0 -36 -10 -48 -23z m78 -36 c17 -32 12 -57
-14 -69 -18 -8 -28 -7 -45 4 -36 26 -19 84 24 84 14 0 29 -8 35 -19z"/>
<path d="M9358 6423 c-5 -75 3 -174 13 -167 5 3 9 26 9 52 0 37 4 50 21 60 28
18 43 3 41 -40 -1 -47 7 -80 18 -73 6 3 10 32 10 64 0 67 -14 86 -60 79 -28
-4 -30 -3 -30 28 0 52 -19 50 -22 -3z"/>
<path d="M8786 6444 c-26 -26 -18 -50 30 -91 44 -37 46 -40 30 -56 -10 -9 -32
-17 -49 -17 -24 0 -28 -3 -17 -10 21 -14 66 -12 78 3 23 29 23 56 1 74 -12 10
-33 27 -46 38 -31 26 -22 55 17 55 16 0 32 5 35 10 10 17 -62 11 -79 -6z"/>
<path d="M8913 6392 c-20 -13 -19 -88 2 -112 22 -25 85 -28 85 -5 0 11 -7 14
-25 9 -27 -7 -55 10 -55 32 0 10 13 14 45 14 40 0 45 2 45 23 0 13 -5 28 -12
35 -13 13 -66 16 -85 4z m65 -14 c20 -20 14 -28 -23 -28 -19 0 -35 4 -35 8 0
12 22 32 35 32 6 0 16 -5 23 -12z"/>
<path d="M9040 6385 c0 -18 4 -19 30 -2 17 10 22 9 30 -3 12 -19 6 -26 -30
-33 -21 -5 -31 -14 -36 -32 -9 -37 11 -55 57 -52 l39 2 0 68 0 67 -45 0 c-33
0 -45 -4 -45 -15z m70 -74 c0 -25 -36 -37 -56 -20 -14 12 -14 14 2 26 27 19
54 16 54 -6z"/>
<path d="M9160 6336 c0 -36 5 -68 10 -71 6 -4 10 12 10 42 1 42 22 94 36 85 2
-2 10 -1 17 1 6 3 -7 6 -30 6 l-43 1 0 -64z"/>
<path d="M9250 6380 c-24 -24 -26 -67 -4 -98 12 -17 25 -22 62 -22 50 0 48 16
-3 22 -61 6 -64 88 -4 96 42 6 46 22 6 22 -24 0 -44 -7 -57 -20z"/>
<path d="M9492 6325 c0 -16 2 -22 5 -12 2 9 2 23 0 30 -3 6 -5 -1 -5 -18z"/>
<path d="M27 6003 c18 -2 48 -2 66 0 17 2 3 4 -33 4 -36 0 -50 -2 -33 -4z"/>
<path d="M9890 5560 c0 -29 4 -40 15 -40 11 0 15 11 15 40 0 29 -4 40 -15 40
-11 0 -15 -11 -15 -40z"/>
<path d="M2785 5364 c-61 -18 -233 -105 -272 -139 -61 -53 -174 -171 -178
-186 -4 -11 -22 -39 -40 -64 -41 -53 -116 -198 -143 -275 -10 -30 -35 -86 -55
-125 -114 -217 -179 -361 -207 -455 -17 -58 -38 -129 -47 -158 -26 -84 -16
-358 13 -383 19 -16 18 -32 -6 -59 l-20 -23 -1 24 c-1 21 -2 21 -6 4 -3 -11
-10 -23 -17 -27 -8 -5 -13 -104 -16 -325 l-5 -318 50 -49 c127 -123 277 -222
445 -294 142 -60 289 -97 178 -44 -24 11 -52 29 -62 41 -11 12 -35 31 -53 42
-30 19 -33 25 -27 53 9 46 35 97 45 90 5 -3 9 -1 9 5 0 6 6 8 14 5 8 -3 17 -1
21 5 3 6 20 11 37 11 23 0 50 15 102 57 84 69 106 90 106 103 0 6 11 16 25 22
13 6 27 19 31 30 3 10 9 16 13 14 11 -7 32 105 25 134 -4 18 -3 21 4 11 12
-17 63 -21 69 -5 2 7 28 10 71 9 42 -2 70 1 75 9 6 7 7 5 3 -6 -3 -10 -1 -20
4 -23 6 -4 10 1 10 9 0 9 5 16 10 16 6 0 10 11 10 25 0 20 5 25 25 25 14 0 25
5 25 10 0 6 -13 10 -29 10 -36 0 -51 19 -22 27 16 4 21 14 22 42 1 20 2 43 3
51 2 8 3 51 4 95 2 88 -4 82 72 83 82 2 99 -1 103 -17 3 -9 6 4 7 29 l3 45 7
-45 7 -45 3 45 3 45 7 -50 7 -50 2 50 c3 41 4 46 11 25 8 -24 8 -24 9 -2 1 12
7 22 16 22 7 0 18 8 23 17 9 15 13 13 38 -14 16 -16 44 -35 62 -43 17 -7 32
-17 32 -22 0 -5 4 -7 9 -4 5 3 20 -5 35 -19 23 -22 28 -23 52 -11 14 8 25 18
25 22 1 23 9 14 9 -9 0 -17 5 -27 15 -27 8 0 15 -4 15 -10 0 -5 6 -10 14 -10
8 0 27 -5 43 -12 15 -6 31 -11 34 -10 11 2 75 -17 142 -41 37 -13 69 -22 71
-18 2 3 -16 28 -40 55 -43 49 -50 69 -38 113 5 19 12 10 42 -50 19 -40 39 -73
43 -75 5 -2 9 -10 9 -18 0 -8 4 -14 10 -14 11 0 5 15 -50 129 -48 99 -61 178
-55 338 5 134 -36 409 -67 450 -24 30 -45 167 -28 178 13 8 3 85 -14 104 -9
10 -16 25 -16 34 0 9 -4 17 -10 17 -5 0 -10 8 -10 19 0 10 -7 32 -15 47 -8 16
-15 39 -15 51 0 12 -4 25 -10 28 -5 3 -10 15 -10 27 0 11 -6 32 -14 46 -21 41
-96 202 -96 207 0 15 -82 139 -122 186 -36 42 -54 56 -69 52 -11 -3 -19 0 -19
7 0 28 -33 44 -96 45 -60 1 -66 3 -102 38 l-39 38 -134 4 c-74 2 -143 2 -154
-1z m198 -428 c12 -3 30 -6 40 -6 20 0 36 -13 115 -92 31 -32 60 -58 64 -58
10 0 63 -54 61 -62 -2 -4 6 -10 17 -13 31 -10 25 -34 -7 -30 -37 5 -183 -21
-227 -39 -19 -8 -37 -12 -40 -8 -3 3 -6 -1 -6 -8 0 -7 -3 -10 -7 -7 -9 9 -33
-41 -33 -69 0 -12 -5 -26 -11 -30 -6 -3 -8 -18 -5 -33 9 -36 39 -101 49 -101
4 0 7 -6 7 -14 0 -21 225 -23 265 -2 16 8 32 13 37 10 4 -3 8 3 8 13 0 13 3
14 8 5 6 -9 12 -6 22 12 7 14 17 23 21 20 5 -3 11 6 15 20 3 13 15 26 26 29
19 5 19 7 -5 50 -24 43 -25 44 -5 39 18 -4 20 -1 16 21 -7 34 19 37 32 5 5
-13 9 -19 9 -14 2 19 70 -82 81 -120 8 -28 11 -104 8 -250 -4 -192 -6 -213
-27 -254 -33 -66 -48 -92 -58 -99 -4 -3 -20 -22 -34 -41 -15 -19 -46 -56 -70
-82 -24 -26 -59 -65 -78 -88 -34 -41 -152 -107 -171 -95 -6 3 -10 1 -10 -4 0
-6 -3 -10 -7 -9 -5 1 -28 -2 -53 -6 -35 -6 -58 -3 -102 14 -70 26 -101 50
-122 95 -10 21 -32 43 -54 54 -55 29 -129 105 -137 140 -4 17 -11 29 -16 25
-5 -3 -9 10 -9 30 0 19 -4 36 -8 38 -5 2 -23 23 -40 47 -37 51 -41 94 -13 149
20 40 21 41 22 75 0 21 1 21 9 2 8 -18 9 -17 9 8 1 16 5 26 11 22 6 -3 10 -2
10 4 0 5 11 22 24 36 17 18 31 24 48 21 57 -13 88 -14 88 -3 0 7 5 6 10 -3 6
-9 10 -10 10 -3 0 6 9 15 20 18 11 4 27 20 36 37 14 27 14 42 3 128 l-13 97
-58 13 -58 12 0 40 c0 25 5 41 15 44 8 4 15 13 15 20 0 8 7 17 15 20 8 4 15
12 15 19 0 7 9 24 20 38 12 15 21 29 20 32 -3 41 5 60 45 102 25 25 45 51 46
57 1 6 5 0 9 -14 l8 -25 2 25 2 25 8 -25 c7 -23 8 -23 9 -3 1 23 24 38 29 17
2 -6 13 -15 25 -18z m334 -268 c-3 -7 -5 -2 -5 12 0 14 2 19 5 13 2 -7 2 -19
0 -25z m20 -10 c-3 -8 -6 -5 -6 6 -1 11 2 17 5 13 3 -3 4 -12 1 -19z m-2 -78
c3 -5 2 -10 -4 -10 -5 0 -13 5 -16 10 -3 6 -2 10 4 10 5 0 13 -4 16 -10z m404
-428 c13 -43 26 -136 36 -248 8 -98 18 -200 21 -226 4 -30 3 -48 -4 -48 -12 0
-34 59 -26 71 3 5 -2 9 -10 9 -18 0 -22 53 -7 93 13 33 -7 248 -35 390 -10 51
4 27 25 -41z m68 -289 c-3 -10 -5 -4 -5 12 0 17 2 24 5 18 2 -7 2 -21 0 -30z
m-1896 -56 c-10 -9 -11 -8 -5 6 3 10 9 15 12 12 3 -3 0 -11 -7 -18z m1896 -44
c-3 -10 -5 -2 -5 17 0 19 2 27 5 18 2 -10 2 -26 0 -35z m-47 -199 c23 -46 28
-116 7 -108 -7 2 -27 27 -45 54 -18 28 -37 50 -43 50 -10 0 -3 43 14 74 9 18
10 18 28 -5 10 -13 28 -42 39 -65z"/>
<path d="M2833 4520 c0 -25 2 -35 4 -22 2 12 2 32 0 45 -2 12 -4 2 -4 -23z"/>
<path d="M3120 4151 c0 -12 -4 -19 -10 -16 -5 3 -10 -2 -10 -12 0 -11 -3 -14
-8 -7 -12 18 -83 2 -121 -27 -28 -23 -77 -18 -98 9 -11 13 -13 13 -14 1 -1 -8
-5 -3 -9 11 l-8 25 -2 -25 c-1 -23 -2 -23 -10 -5 -8 19 -9 19 -9 -3 -1 -13 6
-30 14 -38 8 -9 15 -12 15 -8 0 4 9 -3 20 -16 11 -13 20 -28 20 -34 0 -6 -5
-3 -11 7 -9 15 -12 15 -25 3 -16 -17 -19 -30 -4 -21 6 3 10 1 10 -5 0 -6 5 -8
10 -5 6 3 10 -1 10 -9 0 -14 -12 -20 -32 -17 -5 0 -8 -2 -8 -7 0 -4 -14 -8
-32 -9 -18 0 -34 -6 -36 -12 -2 -6 -17 -11 -33 -11 -19 0 -29 -5 -29 -15 0 -9
9 -15 24 -15 37 0 57 -11 67 -36 4 -13 24 -32 44 -41 19 -9 35 -21 35 -25 0
-5 5 -6 10 -3 6 3 10 0 10 -7 0 -9 3 -9 10 2 9 13 10 13 11 0 0 -10 3 -8 9 5
5 11 9 15 9 8 2 -20 41 -2 41 19 0 10 -4 16 -10 13 -5 -3 -10 1 -10 10 0 9 5
13 10 10 6 -3 10 -1 10 5 0 6 5 8 10 5 6 -4 10 5 10 20 0 23 -2 25 -22 14 -43
-23 -118 -13 -118 16 0 12 13 15 61 15 33 0 69 5 79 10 10 6 30 11 44 12 15 1
26 5 26 9 0 4 8 6 18 5 11 -2 16 -10 14 -23 -2 -11 4 -23 13 -26 8 -4 16 -1
16 6 1 7 5 -6 9 -28 l7 -40 3 40 3 40 7 -35 7 -35 2 35 c2 29 4 32 11 15 6
-15 9 -16 9 -4 1 17 40 39 71 39 41 0 68 68 38 98 -14 14 -42 16 -34 3 4 -5
-15 -16 -41 -25 -60 -20 -133 -26 -133 -12 0 7 -3 8 -8 1 -12 -16 -32 -16 -32
0 0 8 5 15 10 15 6 0 10 10 11 23 1 21 1 21 9 -3 8 -24 8 -24 9 -2 1 12 7 22
14 22 8 0 7 4 -3 10 -8 5 -10 10 -4 10 13 0 40 77 31 87 -4 3 -7 -4 -7 -16z
m-92 -165 c-7 -8 -17 -12 -22 -9 -4 3 -2 9 5 14 22 13 31 11 17 -5z"/>
<path d="M3120 3866 c0 -8 -6 -17 -12 -19 -8 -3 -6 -6 5 -6 11 -1 17 6 17 19
0 11 -2 20 -5 20 -3 0 -5 -6 -5 -14z"/>
<path d="M2992 3815 c0 -16 2 -22 5 -12 2 9 2 23 0 30 -3 6 -5 -1 -5 -18z"/>
<path d="M3011 3814 c0 -11 3 -14 6 -6 3 7 2 16 -1 19 -3 4 -6 -2 -5 -13z"/>
<path d="M3752 3740 c0 -14 2 -19 5 -12 2 6 2 18 0 25 -3 6 -5 1 -5 -13z"/>
<path d="M7860 4905 c0 -167 2 -195 15 -195 12 0 15 18 15 99 0 90 2 100 25
125 30 32 74 35 101 5 16 -17 20 -40 22 -125 3 -70 8 -104 15 -104 12 0 13
157 2 207 -13 58 -89 82 -138 43 -14 -11 -28 -20 -31 -20 -3 0 -6 36 -6 80 0
47 -4 80 -10 80 -6 0 -10 -72 -10 -195z"/>
<path d="M8618 5093 c-9 -22 4 -394 13 -391 6 2 10 7 10 11 -1 4 -1 93 -1 197
0 112 -4 190 -9 190 -6 0 -11 -3 -13 -7z"/>
<path d="M8134 5069 c-10 -17 13 -36 27 -22 12 12 4 33 -11 33 -5 0 -12 -5
-16 -11z"/>
<path d="M6664 4981 c-44 -11 -58 -21 -45 -34 7 -7 14 -7 23 0 21 16 58 22 83
13 17 -7 45 -53 45 -76 0 -2 -17 -6 -37 -9 -74 -11 -112 -26 -128 -48 -22 -31
-19 -64 10 -92 33 -34 84 -33 125 2 30 25 32 25 28 5 -1 -12 2 -21 7 -21 6 -1
10 42 10 109 0 96 -2 112 -20 129 -25 24 -60 32 -101 22z m101 -170 c-11 -52
-41 -81 -85 -81 -21 0 -43 6 -50 15 -17 20 -16 63 1 81 16 16 120 34 133 23 4
-4 5 -21 1 -38z"/>
<path d="M6894 4966 c-24 -18 -13 -31 14 -17 36 19 89 13 106 -11 9 -12 16
-30 16 -40 0 -18 -8 -21 -84 -33 -54 -9 -100 -56 -92 -93 14 -59 99 -84 144
-42 12 11 24 20 27 20 3 0 5 -9 5 -20 0 -11 5 -20 10 -20 6 0 10 43 10 109 0
94 -3 112 -21 135 -17 21 -29 26 -68 26 -26 0 -56 -6 -67 -14z m136 -145 c0
-42 -44 -91 -82 -91 -47 0 -68 16 -68 54 0 42 37 64 113 65 34 1 37 -1 37 -28z"/>
<path d="M7100 4976 c0 -4 22 -65 50 -137 l50 -130 -21 -41 c-20 -38 -20 -56
-1 -44 9 5 37 69 101 235 43 109 46 121 32 121 -5 0 -28 -52 -52 -115 -24 -63
-47 -111 -51 -107 -3 4 -24 54 -46 111 -21 58 -44 107 -50 109 -7 2 -12 1 -12
-2z"/>
<path d="M7370 4880 c0 -122 13 -154 66 -169 38 -11 61 -4 97 27 15 14 17 13
17 -6 0 -12 5 -22 10 -22 6 0 10 52 10 135 0 83 -4 135 -10 135 -6 0 -10 -35
-10 -84 0 -128 -20 -166 -88 -166 -53 0 -67 29 -70 146 -2 57 -8 104 -13 104
-5 0 -9 -45 -9 -100z"/>
<path d="M7667 4962 c-10 -10 -17 -35 -17 -55 0 -34 4 -39 56 -68 61 -35 69
-46 60 -85 -7 -25 -9 -26 -61 -22 -59 5 -72 -6 -27 -23 44 -17 98 4 111 43 14
39 -3 70 -52 94 -67 34 -84 66 -50 99 13 13 27 16 61 11 39 -5 43 -4 32 9 -18
22 -93 20 -113 -3z"/>
<path d="M8148 4974 c-5 -4 -8 -65 -8 -136 0 -107 2 -128 15 -128 12 0 15 17
14 93 -1 105 -10 182 -21 171z"/>
<path d="M8403 4965 c-18 -8 -33 -19 -33 -26 0 -7 6 -8 18 -3 27 12 86 15 100
6 7 -5 16 -22 21 -39 9 -31 9 -32 -32 -38 -102 -16 -127 -34 -127 -94 0 -67
90 -96 144 -46 l26 24 0 -25 c0 -14 5 -24 11 -22 6 2 10 7 10 11 -1 4 -1 52
-1 108 0 98 -1 101 -29 130 -32 32 -59 35 -108 14z m112 -156 c-5 -40 -29 -76
-55 -84 -58 -18 -106 34 -76 81 11 16 31 25 68 31 29 5 56 8 60 6 3 -2 5 -17
3 -34z"/>
<path d="M8691 4958 c1 -30 96 -253 107 -253 10 0 111 239 112 263 0 1 -6 2
-14 2 -13 0 -24 -24 -68 -152 -13 -38 -25 -68 -28 -68 -3 0 -23 48 -45 107
-22 58 -46 108 -52 111 -7 2 -13 -2 -12 -10z"/>
<path d="M8992 4954 c-53 -37 -70 -149 -32 -211 26 -44 85 -62 136 -42 21 8
40 21 42 28 3 10 0 12 -14 7 -66 -27 -136 -10 -149 35 -3 10 -8 28 -11 39 -5
19 -1 20 89 20 51 0 96 2 99 5 13 14 -12 91 -37 112 -31 27 -90 31 -123 7z
m103 -27 c19 -15 26 -30 23 -47 -3 -25 -4 -25 -80 -20 l-77 5 15 31 c26 54 77
68 119 31z"/>
<path d="M8245 4730 c-8 -13 3 -30 20 -30 14 0 27 24 18 34 -10 9 -31 7 -38
-4z"/>
<path d="M6347 4663 c-19 -18 2 -23 103 -23 91 0 110 3 110 15 0 12 -18 15
-103 15 -57 0 -107 -3 -110 -7z"/>
<path d="M3750 4450 c0 -5 5 -10 11 -10 5 0 7 5 4 10 -3 6 -8 10 -11 10 -2 0
-4 -4 -4 -10z"/>
<path d="M8936 4094 c-9 -8 -16 -24 -16 -34 0 -10 -8 -21 -17 -25 -17 -6 -17
-7 -1 -19 12 -9 18 -30 20 -77 4 -83 22 -83 26 1 2 44 8 67 18 73 19 11 18 27
-2 27 -10 0 -14 7 -12 23 2 12 9 22 17 22 8 0 16 6 19 13 6 18 -33 15 -52 -4z"/>
<path d="M9179 4103 c-6 -46 2 -218 11 -221 6 -2 10 36 10 112 0 71 -4 116
-10 116 -5 0 -10 -3 -11 -7z"/>
<path d="M9249 4106 c-2 -2 -3 -54 -1 -115 3 -91 6 -111 18 -111 13 0 15 17
10 112 -5 100 -12 129 -27 114z"/>
<path d="M6387 4079 c-21 -11 -35 -24 -32 -29 4 -7 13 -6 26 0 18 10 19 7 19
-80 0 -73 3 -90 15 -90 12 0 15 19 15 110 0 61 -1 110 -2 110 -2 -1 -20 -10
-41 -21z"/>
<path d="M6508 4089 c-10 -5 -18 -16 -18 -24 0 -11 6 -11 29 -2 23 8 33 8 45
-2 26 -21 19 -39 -34 -90 -29 -28 -50 -57 -50 -70 0 -19 5 -21 65 -21 51 0 65
3 65 15 0 11 -12 15 -45 15 -53 0 -57 10 -15 40 63 45 76 121 24 140 -31 12
-44 12 -66 -1z"/>
<path d="M6683 4090 c-13 -5 -23 -16 -23 -25 0 -12 4 -14 19 -5 39 21 71 7 71
-30 0 -5 -22 -31 -50 -58 -28 -28 -50 -59 -50 -71 0 -19 5 -21 71 -21 52 0 70
3 67 13 -3 6 -25 13 -51 15 -26 2 -47 6 -47 9 0 3 20 24 45 47 51 48 58 83 25
116 -21 21 -42 24 -77 10z"/>
<path d="M8444 4093 c-39 -8 -58 -40 -62 -106 -3 -53 0 -65 18 -84 38 -41 106
-21 111 33 4 43 -2 61 -26 74 -19 10 -30 11 -50 2 -20 -9 -25 -9 -25 1 0 25
28 51 56 52 18 1 29 7 29 16 0 15 -17 19 -51 12z m26 -117 c18 -22 9 -60 -16
-64 -31 -4 -50 23 -36 53 13 28 34 32 52 11z"/>
<path d="M8568 4082 c-33 -20 -38 -47 -8 -37 19 6 20 2 20 -80 0 -73 2 -86 16
-83 8 2 15 6 15 11 -1 4 -1 52 -1 107 0 55 -3 100 -7 99 -5 0 -20 -8 -35 -17z"/>
<path d="M8683 4094 c-8 -4 -13 -25 -13 -55 0 -45 2 -49 24 -49 13 0 34 -8 46
-18 20 -16 21 -21 10 -41 -9 -19 -18 -22 -46 -19 -27 3 -34 1 -32 -11 5 -26
73 -26 97 -2 42 42 12 121 -46 121 -26 0 -27 3 -13 31 7 12 21 19 41 19 46 0
30 25 -17 27 -21 1 -45 0 -51 -3z"/>
<path d="M7410 4064 c0 -9 -8 -23 -17 -30 -17 -13 -17 -13 0 -14 14 0 17 -10
17 -58 0 -32 5 -63 12 -70 15 -15 48 -16 48 -2 0 6 -6 10 -14 10 -17 0 -21 13
-21 69 0 39 3 46 25 52 l25 6 -29 12 c-18 7 -26 16 -22 26 3 9 0 15 -9 15 -8
0 -15 -7 -15 -16z"/>
<path d="M9980 4033 c-15 -10 -25 -12 -33 -4 -7 5 -31 9 -52 8 l-40 -3 4 -75
c3 -78 6 -89 22 -89 5 0 9 24 9 53 0 55 12 80 43 90 13 5 17 1 17 -18 0 -18
11 -32 41 -51 46 -29 39 -47 -13 -37 -21 4 -28 2 -28 -11 0 -23 48 -32 79 -15
45 25 37 70 -16 90 -13 5 -23 16 -23 25 0 13 7 15 35 10 35 -7 42 -1 27 20
-12 19 -50 22 -72 7z"/>
<path d="M6919 4036 c-8 -9 3 -226 12 -226 5 0 9 18 9 39 0 40 0 40 34 34 26
-4 39 0 55 16 28 28 29 93 1 121 -23 23 -33 24 -63 9 -16 -9 -22 -9 -25 0 -4
11 -15 15 -23 7z m95 -32 c32 -31 13 -104 -27 -104 -32 0 -47 18 -47 58 0 52
42 78 74 46z"/>
<path d="M7116 4019 c-33 -26 -37 -88 -6 -119 46 -46 120 -9 120 59 0 42 -7
54 -37 70 -31 16 -47 14 -77 -10z m76 -16 c22 -20 24 -66 2 -87 -34 -34 -84
-8 -84 44 0 52 45 76 82 43z"/>
<path d="M7288 4029 c-31 -17 -22 -55 18 -78 42 -25 40 -46 -4 -46 -18 0 -31
-4 -29 -10 5 -13 33 -18 63 -11 19 5 24 13 24 36 0 25 -6 33 -35 47 -45 22
-43 49 3 47 34 -2 43 10 16 20 -22 8 -36 7 -56 -5z"/>
<path d="M7530 4033 c-42 -16 -39 -59 5 -80 22 -11 35 -24 35 -36 0 -17 -5
-19 -35 -14 -26 4 -35 2 -35 -9 0 -9 11 -14 33 -14 37 0 54 9 57 30 5 31 -1
41 -35 57 -19 9 -35 22 -35 29 0 16 32 27 54 18 9 -3 16 -2 16 4 0 18 -32 25
-60 15z"/>
<path d="M9033 4028 c-39 -19 -48 -94 -17 -129 25 -28 88 -26 108 3 26 36 21
93 -10 117 -29 23 -48 25 -81 9z m75 -62 c5 -59 -35 -87 -72 -50 -37 37 0 112
46 95 17 -6 24 -17 26 -45z"/>
<path d="M9360 4033 c-50 -18 -67 -84 -34 -131 18 -26 84 -31 107 -7 24 24 30
70 13 103 -20 38 -47 49 -86 35z m61 -47 c25 -53 -25 -110 -66 -76 -15 13 -20
56 -9 84 10 26 62 20 75 -8z"/>
<path d="M9471 4028 c0 -7 10 -42 22 -78 29 -85 50 -91 68 -18 l12 53 13 -30
c7 -16 13 -40 14 -51 0 -23 25 -40 35 -23 7 11 45 139 45 151 0 5 -7 8 -15 8
-13 0 -25 -31 -37 -95 -3 -13 -10 1 -21 38 -25 80 -41 76 -62 -18 l-12 -50
-18 63 c-11 37 -23 62 -31 62 -8 0 -14 -6 -13 -12z"/>
<path d="M9723 4025 c-44 -31 -38 -120 10 -140 33 -14 78 -6 85 15 4 10 -3 11
-28 6 -35 -6 -60 6 -60 30 0 10 14 14 50 14 54 0 61 10 39 53 -22 40 -58 49
-96 22z m66 -28 c14 -18 4 -27 -31 -27 -26 0 -37 17 -21 33 11 12 40 8 52 -6z"/>
<path d="M10035 3870 c-3 -5 -2 -10 4 -10 5 0 13 5 16 10 3 6 2 10 -4 10 -5 0
-13 -4 -16 -10z"/>
<path d="M76 3424 c-8 -20 0 -32 14 -18 5 5 5 15 1 22 -6 11 -10 10 -15 -4z"/>
<path d="M3041 3424 c0 -11 3 -14 6 -6 3 7 2 16 -1 19 -3 4 -6 -2 -5 -13z"/>
<path d="M3522 3389 c2 -6 8 -10 13 -10 5 0 11 4 13 10 2 6 -4 11 -13 11 -9 0
-15 -5 -13 -11z"/>
<path d="M8342 3375 c-18 -8 -40 -28 -50 -46 -9 -17 -27 -44 -39 -59 -28 -34
-30 -84 -4 -102 10 -7 21 -23 25 -34 10 -33 64 -84 89 -84 12 -1 64 -3 115 -6
l92 -6 0 176 0 176 -97 0 c-62 -1 -110 -6 -131 -15z m99 -15 c5 0 9 -56 9
-125 0 -105 -3 -127 -16 -132 -8 -3 -19 -2 -25 4 -10 10 -21 241 -12 256 3 4
12 6 20 3 8 -3 19 -6 24 -6z m-63 -102 c1 -117 -3 -138 -28 -138 -26 0 -35 35
-19 82 10 31 10 44 1 59 -19 29 -14 66 10 83 12 8 24 13 28 11 4 -2 7 -46 8
-97z m122 76 c0 -8 -6 -14 -13 -14 -19 0 -27 10 -20 25 6 17 33 8 33 -11z"/>
<path d="M7235 3300 c-4 -6 -4 -54 0 -105 6 -83 10 -95 26 -95 15 0 18 9 21
52 2 40 7 54 20 56 14 3 17 -6 20 -50 3 -46 6 -53 26 -56 21 -3 22 0 22 55 0
75 -8 87 -54 81 -36 -4 -36 -4 -36 34 0 31 -4 38 -19 38 -11 0 -23 -5 -26 -10z"/>
<path d="M7415 3300 c-9 -15 4 -30 26 -30 12 0 19 7 19 20 0 21 -33 29 -45 10z"/>
<path d="M7794 3258 c3 -29 6 -77 6 -105 0 -46 3 -53 20 -53 19 0 20 7 20 105
l0 105 -26 0 c-26 0 -27 -1 -20 -52z"/>
<path d="M3934 3268 c-25 -39 -84 -161 -112 -233 -32 -80 -50 -163 -57 -269
l-7 -99 48 34 c27 19 92 77 145 129 99 99 102 103 131 230 7 30 15 57 18 60
17 17 30 56 30 94 0 42 -2 44 -42 61 -23 9 -62 19 -87 21 -43 5 -47 4 -67 -28z"/>
<path d="M6410 3254 c-11 -25 -20 -49 -20 -54 0 -5 -9 -29 -20 -54 l-19 -46
25 0 c17 0 28 7 31 20 4 15 14 20 40 20 26 0 36 -5 40 -20 4 -14 14 -20 34
-20 l29 0 -35 98 c-19 53 -35 98 -35 100 0 1 -11 2 -25 2 -21 0 -29 -9 -45
-46z m49 -75 c-22 -13 -31 5 -18 37 l11 29 10 -29 c8 -22 7 -30 -3 -37z"/>
<path d="M7637 3278 c-7 -33 -46 -140 -57 -160 -9 -15 -6 -18 19 -18 20 0 30
6 34 20 4 15 14 20 41 20 29 0 36 -4 36 -20 0 -16 7 -20 30 -20 17 0 30 1 30
3 -1 1 -16 45 -34 97 -31 90 -35 95 -63 98 -25 3 -31 -1 -36 -20z m52 -85 c1
-7 -8 -13 -19 -13 -19 0 -19 3 -4 48 6 15 7 15 14 -3 5 -11 9 -26 9 -32z"/>
<path d="M3082 3220 c0 -19 2 -27 5 -17 2 9 2 25 0 35 -3 9 -5 1 -5 -18z"/>
<path d="M7993 3242 c-13 -2 -23 -9 -23 -15 -1 -7 -7 -25 -14 -42 l-13 -30
-12 43 c-10 35 -16 42 -37 42 -21 0 -25 -4 -19 -17 4 -10 16 -42 27 -70 15
-42 24 -53 41 -53 18 0 28 14 51 70 16 39 27 72 25 73 -2 2 -14 1 -26 -1z"/>
<path d="M8093 3242 c-50 -8 -70 -85 -33 -122 23 -23 77 -27 105 -7 24 18 5
30 -28 18 -16 -6 -28 -6 -36 2 -20 20 -12 27 34 27 40 0 45 2 45 23 -1 43 -36
67 -87 59z m33 -33 c7 -12 -15 -31 -28 -23 -9 6 1 34 12 34 5 0 12 -5 16 -11z"/>
<path d="M6593 3233 c-25 -10 -12 -24 19 -21 49 5 50 -25 2 -38 -45 -11 -64
-35 -45 -58 10 -11 31 -16 72 -16 l59 0 0 58 c0 32 -5 63 -12 70 -12 12 -71
15 -95 5z m54 -98 c-4 -8 -13 -15 -22 -15 -21 0 -19 28 3 32 22 5 26 2 19 -17z"/>
<path d="M6735 3223 c19 -46 45 -127 45 -139 0 -6 -13 -17 -30 -23 -38 -13
-39 -31 -2 -31 44 0 64 24 100 120 11 30 24 63 28 73 6 15 3 18 -16 15 -18 -2
-27 -14 -39 -48 l-15 -45 -15 48 c-12 39 -19 47 -39 47 -19 0 -23 -4 -17 -17z"/>
<path d="M6910 3186 c0 -83 3 -86 76 -86 l64 0 0 39 c0 66 -11 101 -31 101
-15 0 -19 -9 -21 -52 -2 -41 -7 -54 -20 -56 -15 -3 -18 5 -18 52 0 53 -1 56
-25 56 -24 0 -25 -3 -25 -54z"/>
<path d="M7103 3233 c-7 -2 -13 -17 -13 -33 0 -22 7 -31 30 -42 40 -17 40 -40
0 -36 -16 2 -29 -1 -30 -7 -1 -15 79 -18 96 -4 23 19 16 48 -17 68 -35 21 -38
36 -7 36 12 0 23 6 25 13 5 12 -57 16 -84 5z"/>
<path d="M7420 3170 c0 -63 2 -70 20 -70 18 0 20 7 20 70 0 63 -2 70 -20 70
-18 0 -20 -7 -20 -70z"/>
<path d="M10130 3000 c0 -29 4 -40 15 -40 11 0 15 11 15 40 0 29 -4 40 -15 40
-11 0 -15 -11 -15 -40z"/>
<path d="M8656 2873 c-3 -3 -6 -26 -6 -50 0 -23 -4 -43 -10 -43 -5 0 -8 -13
-7 -28 2 -27 4 -29 39 -25 20 3 45 0 55 -6 14 -8 -1 -10 -62 -10 -44 1 -72 3
-62 6 13 3 16 10 12 24 -4 11 -3 25 3 32 15 20 12 87 -4 87 -10 0 -12 -10 -7
-45 7 -54 -3 -58 -23 -10 -8 19 -19 35 -24 35 -14 0 -13 -23 1 -37 6 -6 14
-43 17 -82 l5 -71 82 0 83 0 7 75 c4 41 11 77 16 81 14 8 11 34 -5 34 -7 0
-16 -13 -19 -30 -4 -16 -11 -30 -17 -30 -13 0 -13 36 0 61 9 16 7 19 -12 19
-19 0 -20 -2 -8 -10 10 -6 11 -10 3 -10 -15 0 -17 -39 -3 -74 7 -21 6 -26 -5
-26 -9 0 -12 6 -8 16 3 9 0 20 -7 24 -7 4 -13 26 -13 49 0 40 -8 57 -21 44z
m23 -120 c1 -7 -6 -13 -14 -13 -17 0 -18 4 -8 39 6 23 7 23 14 5 4 -10 8 -25
8 -31z m-82 -15 c-3 -8 -6 -5 -6 6 -1 11 2 17 5 13 3 -3 4 -12 1 -19z m140 0
c-3 -8 -6 -5 -6 6 -1 11 2 17 5 13 3 -3 4 -12 1 -19z m-29 -45 c-21 -2 -57 -2
-80 0 -24 2 -7 4 37 4 44 0 63 -2 43 -4z m0 -30 c-21 -2 -57 -2 -80 0 -24 2
-7 4 37 4 44 0 63 -2 43 -4z"/>
<path d="M7950 2851 c-12 -5 -15 -27 -15 -109 l0 -102 25 0 25 0 -3 102 c-2
57 -7 106 -10 109 -4 4 -14 4 -22 0z"/>
<path d="M8359 2856 c-2 -2 -3 -52 -1 -110 l3 -106 30 0 c33 0 33 -1 19 35
-14 38 -1 53 21 24 10 -13 19 -31 19 -39 0 -10 11 -17 30 -18 21 -2 30 2 30
13 0 8 -4 15 -8 15 -5 0 -17 18 -27 40 -18 40 -18 40 5 65 l23 25 -32 0 c-27
0 -31 -3 -27 -18 4 -12 -1 -26 -14 -37 -19 -18 -20 -18 -22 1 -1 10 -2 26 -4
34 -1 8 -2 30 -3 48 -1 24 -6 32 -19 32 -10 0 -21 -2 -23 -4z"/>
<path d="M7187 2743 c2 -96 4 -108 20 -108 16 0 18 11 18 105 0 97 -1 105 -20
108 -19 3 -20 -2 -18 -105z"/>
<path d="M7829 2828 c-7 -12 -12 -59 -13 -105 -1 -82 -1 -83 24 -83 24 0 25 1
22 65 -3 54 -1 65 12 65 9 0 16 5 16 10 0 6 -7 10 -15 10 -8 0 -15 9 -15 20 0
17 5 19 25 14 19 -5 25 -2 25 10 0 26 -66 22 -81 -6z"/>
<path d="M6424 2793 c-9 -27 -27 -74 -39 -105 l-23 -58 24 0 c19 0 22 5 21 28
-2 24 2 27 32 30 37 4 54 -12 45 -40 -4 -15 1 -18 28 -18 l34 0 -34 105 c-27
83 -38 105 -52 105 -13 0 -24 -14 -36 -47z m41 -50 c6 -31 5 -33 -19 -33 -29
0 -31 4 -15 49 13 37 24 31 34 -16z"/>
<path d="M8055 2778 c-34 -27 -36 -99 -3 -122 30 -22 61 -20 89 4 l24 20 -39
-6 c-27 -5 -41 -3 -47 7 -18 29 -10 39 36 39 36 0 45 3 45 18 0 27 -14 42 -48
51 -25 8 -36 6 -57 -11z m57 -8 c4 -28 1 -33 -19 -36 -24 -4 -27 3 -17 30 7
18 33 22 36 6z"/>
<path d="M8214 2775 c-46 -46 -19 -135 40 -135 27 0 75 35 63 46 -4 4 -13 2
-19 -4 -18 -18 -46 -14 -58 7 -15 30 -14 31 35 31 41 0 45 2 45 24 0 50 -67
70 -106 31z m64 -18 c3 -12 -3 -17 -22 -17 -28 0 -29 1 -20 25 8 20 38 15 42
-8z"/>
<path d="M6680 2770 c-17 -17 -18 -24 -10 -41 6 -11 22 -25 35 -31 13 -6 26
-17 29 -25 8 -19 -22 -29 -45 -15 -24 15 -29 15 -29 -2 0 -14 29 -26 63 -26
46 0 69 72 27 85 -9 3 -25 14 -34 24 -14 16 -14 20 -2 30 11 9 17 8 29 -4 19
-19 27 -19 27 -1 0 31 -61 35 -90 6z"/>
<path d="M6836 2769 c-20 -15 -26 -29 -26 -57 0 -45 8 -58 43 -71 29 -11 75 0
89 22 16 26 8 86 -14 107 -28 26 -58 26 -92 -1z m68 -15 c3 -9 6 -28 6 -44 0
-16 -3 -35 -6 -44 -9 -24 -41 -19 -48 7 -8 30 -8 82 1 90 12 13 41 7 47 -9z"/>
<path d="M6994 2774 c3 -9 6 -40 6 -70 0 -47 3 -56 23 -63 13 -5 30 -5 40 1
12 6 23 6 33 -2 30 -25 39 -6 34 71 -4 66 -7 74 -26 77 -20 3 -21 -1 -17 -51
2 -39 -1 -58 -11 -66 -25 -21 -36 -3 -36 60 0 57 -1 59 -26 59 -20 0 -25 -4
-20 -16z"/>
<path d="M7382 2774 c-29 -20 -31 -93 -3 -118 29 -26 91 -18 110 15 41 73 -39
151 -107 103z m78 -70 c0 -11 -6 -29 -14 -39 -12 -16 -16 -17 -30 -6 -23 19
-22 97 2 110 14 8 19 5 29 -17 7 -15 12 -36 13 -48z"/>
<path d="M7545 2715 c0 -73 1 -75 25 -75 24 0 25 3 25 57 0 46 3 58 17 61 19
4 34 -50 26 -93 -5 -22 -2 -25 21 -25 26 0 26 0 21 65 -7 78 -18 94 -60 78
-17 -6 -30 -7 -30 -2 0 5 -10 9 -22 9 -22 0 -23 -4 -23 -75z"/>
<path d="M3012 2425 c0 -16 2 -22 5 -12 2 9 2 23 0 30 -3 6 -5 -1 -5 -18z"/>
<path d="M7880 2368 c0 -11 9 -31 20 -45 27 -35 18 -40 -20 -13 -41 29 -57 21
-58 -28 -1 -51 15 -58 62 -26 l36 25 0 -31 c0 -21 -9 -39 -26 -55 -25 -24 -26
-25 -6 -25 26 0 35 14 42 68 l5 44 28 -22 c40 -32 62 -23 62 25 0 49 -25 58
-61 24 -32 -30 -41 -18 -14 19 31 41 21 59 -29 60 -35 1 -41 -2 -41 -20z"/>
<path d="M6868 2283 c2 -54 5 -103 7 -109 2 -7 25 -11 55 -10 63 2 80 20 80
83 0 34 -5 46 -24 58 -19 13 -29 14 -45 6 -29 -16 -31 -15 -31 29 0 35 -3 40
-22 40 -23 0 -23 -2 -20 -97z m96 -25 c13 -36 0 -78 -23 -78 -22 0 -31 19 -31
65 0 50 38 59 54 13z"/>
<path d="M6442 2353 c-5 -10 -19 -49 -32 -88 -12 -38 -26 -74 -31 -79 -15 -17
-10 -26 14 -26 21 0 23 4 19 31 -4 30 -4 30 34 27 35 -3 39 -6 39 -30 -1 -25
3 -28 33 -28 29 0 33 3 27 18 -4 9 -18 52 -31 95 -12 42 -26 82 -29 87 -10 16
-33 12 -43 -7z m37 -105 c1 -5 -12 -8 -29 -8 -19 0 -28 4 -25 13 2 6 10 26 16
42 l11 30 13 -35 c8 -19 14 -38 14 -42z"/>
<path d="M7060 2350 c0 -13 7 -20 20 -20 13 0 20 7 20 20 0 13 -7 20 -20 20
-13 0 -20 -7 -20 -20z"/>
<path d="M7635 2338 c-9 -32 -5 -129 6 -150 10 -18 35 -23 63 -12 22 8 20 24
-3 24 -22 0 -31 19 -31 66 0 27 4 34 19 34 11 0 23 5 26 10 3 6 -4 10 -15 10
-13 0 -24 8 -27 20 -7 27 -29 25 -38 -2z"/>
<path d="M6595 2240 c0 -79 0 -80 25 -80 24 0 25 2 22 60 -3 48 -1 61 13 66
24 10 30 -2 30 -67 0 -54 2 -59 22 -59 20 0 22 6 25 62 2 49 7 64 19 66 13 2
18 -7 21 -40 3 -24 1 -53 -3 -65 -8 -21 -5 -23 23 -23 l31 0 -6 67 c-4 48 -10
70 -23 80 -23 17 -29 16 -49 -4 -10 -10 -19 -12 -23 -6 -12 17 -44 24 -58 12
-7 -6 -19 -7 -26 -3 -38 24 -43 15 -43 -66z"/>
<path d="M7057 2243 c1 -77 1 -78 28 -81 22 -3 27 0 21 13 -3 9 -6 46 -6 81 0
60 -2 64 -22 64 -22 0 -23 -3 -21 -77z"/>
<path d="M7149 2298 c5 -13 19 -49 31 -81 13 -32 27 -56 33 -54 6 2 25 38 43
80 l33 77 -23 0 c-18 0 -23 -4 -19 -18 2 -10 -2 -34 -10 -53 l-15 -34 -11 30
c-7 16 -10 40 -8 52 4 20 0 23 -29 23 -31 0 -33 -2 -25 -22z"/>
<path d="M7335 2295 c-47 -46 -23 -125 39 -125 34 0 76 23 64 36 -4 4 -14 2
-21 -5 -17 -14 -44 -5 -57 19 -13 24 -4 30 47 30 47 0 53 11 27 48 -21 30 -68
29 -99 -3z m64 -4 c12 -21 5 -31 -21 -31 -11 0 -18 7 -18 18 0 35 23 43 39 13z"/>
<path d="M7485 2245 c0 -74 0 -75 25 -75 24 0 25 3 25 58 l0 57 33 -3 c26 -2
32 2 32 18 0 23 -38 28 -58 8 -9 -9 -12 -9 -12 0 0 7 -10 12 -22 12 -22 0 -23
-4 -23 -75z"/>
<path d="M8442 1929 c-70 -15 -104 -79 -77 -147 43 -107 190 -86 202 30 8 79
-50 134 -125 117z m8 -62 c0 -35 -6 -49 -30 -72 l-29 -28 -11 27 c-13 36 -3
72 27 96 37 29 43 25 43 -23z m74 17 c26 -26 33 -64 20 -99 -6 -14 -12 -11
-40 16 -27 26 -34 41 -34 71 0 46 16 49 54 12z m-74 -118 c0 -29 -3 -33 -20
-29 -11 3 -20 7 -20 10 0 5 34 52 38 53 1 0 2 -15 2 -34z m54 -23 c-23 -17
-34 -8 -34 29 l0 31 26 -24 c23 -22 24 -24 8 -36z"/>
<path d="M8703 1825 l2 -105 35 0 c26 0 31 3 22 12 -7 7 -12 27 -12 45 0 31 2
33 35 33 33 0 35 -2 35 -33 0 -18 -5 -38 -12 -45 -9 -9 -2 -12 32 -12 34 0 41
3 32 12 -7 7 -12 43 -12 93 0 50 5 86 12 93 9 9 3 12 -31 12 -26 0 -40 -4 -36
-10 4 -6 8 -25 11 -42 4 -35 -8 -48 -45 -48 -22 0 -23 3 -19 50 5 49 5 50 -23
50 l-28 0 2 -105z"/>
<path d="M7459 1814 c2 -73 0 -99 -10 -105 -9 -6 2 -9 31 -9 34 0 41 3 32 12
-7 7 -12 27 -12 45 0 31 2 33 33 33 42 0 70 28 65 66 -4 36 -37 54 -98 54
l-45 0 4 -96z m77 68 c35 -22 22 -82 -17 -82 -15 0 -19 7 -19 38 0 49 10 61
36 44z"/>
<path d="M6392 1789 l3 -106 60 2 c60 1 60 1 63 33 2 18 -1 32 -7 32 -6 0 -11
-7 -11 -15 0 -8 -8 -18 -17 -23 -36 -19 -43 -4 -43 93 l0 93 -25 -2 -26 -1 3
-106z"/>
<path d="M7168 1889 c-21 -12 -23 -63 -5 -95 7 -12 27 -34 45 -49 l33 -28 34
33 c48 46 62 93 40 126 -13 20 -22 24 -38 19 -28 -9 -58 -10 -77 -2 -8 4 -23
2 -32 -4z m53 -25 c17 -15 19 -15 34 0 20 20 29 20 44 2 17 -20 4 -59 -32 -96
l-32 -32 -32 38 c-54 62 -38 139 18 88z"/>
<path d="M9666 1810 c1 -44 4 -80 8 -80 3 0 41 0 83 0 60 0 74 3 65 12 -7 7
-12 36 -12 64 0 71 -25 98 -71 74 -13 -7 -19 -7 -19 0 0 5 -12 10 -27 10 l-28
0 1 -80z m92 -10 c4 -47 -12 -75 -28 -50 -11 17 -13 83 -3 94 15 15 28 -3 31
-44z"/>
<path d="M9830 1881 c0 -6 5 -13 11 -16 6 -4 8 -14 4 -23 -3 -9 -3 -13 1 -9
10 9 45 -103 39 -122 -3 -7 -12 -10 -22 -7 -19 8 -34 -10 -26 -31 7 -18 50
-16 57 3 3 8 11 12 17 8 7 -4 9 -3 6 3 -3 5 0 21 7 35 8 14 21 48 30 76 10 28
24 56 32 62 24 21 16 30 -26 30 -22 0 -40 -4 -40 -10 0 -5 5 -10 10 -10 13 0
13 -12 -1 -47 l-12 -28 -8 30 c-5 17 -6 38 -3 48 4 14 -1 17 -35 17 -23 0 -41
-4 -41 -9z"/>
<path d="M8938 1868 c-30 -11 -38 -38 -12 -38 9 0 23 8 30 18 12 15 15 15 24
2 17 -26 11 -37 -29 -49 -43 -12 -52 -26 -40 -57 6 -19 15 -21 73 -21 36 0 63
3 61 8 -3 4 -8 34 -10 66 -7 78 -31 96 -97 71z m52 -92 c0 -20 -26 -40 -35
-26 -10 16 2 40 20 40 8 0 15 -6 15 -14z"/>
<path d="M9077 1873 c-4 -3 -2 -12 4 -20 7 -8 10 -37 7 -73 l-4 -61 30 3 c22
2 30 7 27 18 -12 42 -12 93 -1 103 10 9 14 9 17 0 8 -22 43 -15 43 7 0 26 -27
37 -51 21 -12 -7 -19 -7 -19 -1 0 11 -43 14 -53 3z"/>
<path d="M9221 1859 c6 -13 9 -47 7 -80 -4 -59 -4 -59 24 -59 28 0 28 1 28 59
0 60 14 86 32 60 5 -8 6 -38 3 -66 l-5 -53 29 0 c17 0 33 5 36 10 3 6 1 10 -5
10 -7 0 -10 19 -8 53 2 38 7 52 18 52 12 0 15 -14 16 -60 1 -59 1 -60 31 -63
l29 -3 -4 63 c-2 35 -9 71 -14 81 -10 19 -64 24 -70 6 -3 -9 -10 -8 -25 2 -17
10 -27 10 -48 1 -15 -7 -24 -8 -20 -2 4 6 -8 10 -30 10 -33 0 -35 -1 -24 -21z"/>
<path d="M9506 1864 c-10 -9 -16 -33 -16 -59 0 -54 19 -75 70 -75 52 0 70 20
70 80 0 39 -4 52 -19 60 -29 15 -87 12 -105 -6z m72 -62 c3 -47 1 -53 -15 -50
-14 2 -19 14 -21 56 -3 47 -1 53 15 50 14 -2 19 -14 21 -56z"/>
<path d="M8135 1849 c-20 -16 -25 -29 -25 -63 0 -49 22 -76 61 -76 30 0 72 28
63 42 -4 6 -10 6 -17 -1 -16 -16 -54 -13 -61 5 -11 29 -6 34 39 34 36 0 45 3
45 18 -1 49 -63 73 -105 41z m58 -18 c5 -22 -13 -33 -33 -21 -16 10 -6 40 14
40 7 0 16 -9 19 -19z"/>
<path d="M7655 1835 c-64 -63 6 -169 80 -121 35 23 31 37 -6 23 -27 -11 -32
-10 -45 7 -22 30 -18 35 34 38 41 3 47 6 44 23 -4 25 -38 55 -64 55 -10 0 -30
-11 -43 -25z m63 -18 c2 -12 -3 -17 -17 -17 -12 0 -21 6 -21 13 0 31 32 34 38
4z"/>
<path d="M7823 1850 c-13 -5 -23 -16 -23 -25 0 -22 27 -18 33 5 6 25 33 17 40
-11 4 -13 0 -22 -11 -25 -41 -12 -67 -31 -70 -51 -4 -29 30 -48 59 -33 15 8
24 8 33 1 8 -6 20 -9 27 -6 20 7 10 132 -11 145 -18 12 -48 12 -77 0z m47 -95
c0 -18 -5 -25 -20 -25 -25 0 -26 25 -2 39 23 14 22 14 22 -14z"/>
<path d="M7980 1840 c-24 -24 -26 -77 -4 -108 16 -24 53 -29 85 -12 31 17 22
29 -16 23 -38 -6 -39 -4 -37 61 0 38 20 57 33 34 14 -24 39 -23 39 2 0 17 -7
20 -40 20 -27 0 -47 -7 -60 -20z"/>
<path d="M6839 1847 c-1 -1 -3 -14 -4 -29 -2 -15 -10 -39 -18 -53 l-13 -27
-13 41 c-6 23 -9 46 -6 51 4 6 -9 10 -29 10 -32 0 -35 -2 -26 -17 6 -10 19
-43 29 -73 26 -79 42 -76 79 14 24 60 27 76 16 80 -8 3 -15 4 -15 3z"/>
<path d="M6943 1840 c-68 -27 -51 -150 21 -150 13 0 34 9 47 20 l24 21 -33 -6
c-34 -7 -62 7 -62 31 0 8 16 14 48 16 41 3 47 6 44 23 -3 22 -38 55 -56 54 -6
0 -21 -4 -33 -9z m42 -35 c0 -14 -6 -19 -20 -17 -26 5 -27 6 -19 26 9 23 39
16 39 -9z"/>
<path d="M9985 1839 c-4 -6 -5 -12 -2 -15 2 -3 7 2 10 11 7 17 1 20 -8 4z"/>
<path d="M6570 1813 c-16 -21 -20 -37 -16 -61 7 -47 23 -62 65 -62 56 0 76 20
76 75 0 54 -20 75 -71 75 -24 0 -39 -8 -54 -27z m76 -6 c3 -13 4 -41 2 -63 -2
-31 -7 -39 -23 -39 -17 0 -20 8 -23 49 -2 27 -1 55 2 62 9 22 35 16 42 -9z"/>
<path d="M9991 1764 c0 -11 3 -14 6 -6 3 7 2 16 -1 19 -3 4 -6 -2 -5 -13z"/>
<path d="M9962 1750 c0 -14 2 -19 5 -12 2 6 2 18 0 25 -3 6 -5 1 -5 -13z"/>
<path d="M9935 1710 c-3 -5 -1 -10 4 -10 6 0 11 5 11 10 0 6 -2 10 -4 10 -3 0
-8 -4 -11 -10z"/>
<path d="M9991 1694 c0 -11 3 -14 6 -6 3 7 2 16 -1 19 -3 4 -6 -2 -5 -13z"/>
<path d="M9522 1291 c-10 -27 1 -166 13 -166 6 0 12 20 15 45 4 32 10 46 23
48 14 3 17 -4 17 -42 0 -39 3 -46 19 -46 17 0 19 6 17 49 -4 63 -12 74 -47 69
-26 -4 -29 -2 -29 23 0 34 -18 47 -28 20z"/>
<path d="M8846 1291 c-3 -4 -3 -19 -1 -33 5 -24 2 -26 -27 -24 -42 1 -68 -38
-52 -81 9 -26 14 -28 62 -30 l52 -1 -2 84 c-2 54 -7 85 -15 88 -7 3 -15 2 -17
-3z m-4 -96 c9 -21 9 -29 -5 -42 -13 -13 -19 -14 -31 -3 -19 15 -21 41 -4 58
18 18 27 15 40 -13z"/>
<path d="M8907 1293 c-4 -3 -7 -44 -7 -90 0 -76 2 -83 20 -83 17 0 20 7 20 44
0 46 16 69 31 45 5 -8 9 -31 9 -51 0 -28 4 -38 15 -38 13 0 15 11 13 58 l-3
57 -38 0 c-35 0 -37 2 -37 33 0 30 -9 40 -23 25z"/>
<path d="M9035 1291 c-7 -12 12 -24 25 -16 11 7 4 25 -10 25 -5 0 -11 -4 -15
-9z"/>
<path d="M8050 1195 c0 -69 3 -85 15 -85 11 0 15 12 15 44 0 32 5 46 17 50 22
9 33 -10 33 -56 0 -25 5 -38 13 -38 10 0 13 13 11 47 -4 68 -10 76 -44 71 -27
-4 -30 -2 -30 24 0 18 -5 28 -15 28 -12 0 -15 -16 -15 -85z"/>
<path d="M9220 1265 c0 -8 -4 -15 -10 -15 -5 0 -10 -7 -10 -15 0 -8 5 -15 10
-15 6 0 10 -20 10 -44 0 -36 4 -46 20 -51 21 -7 40 0 40 16 0 5 -7 9 -15 9
-23 0 -20 66 3 75 16 6 16 7 0 19 -10 7 -18 18 -18 25 0 6 -7 11 -15 11 -8 0
-15 -7 -15 -15z"/>
<path d="M7398 1264 c-5 -4 -8 -42 -8 -84 l0 -77 45 -1 c49 -1 65 14 65 61 0
32 -22 49 -57 45 -25 -3 -29 1 -33 30 -3 19 -8 30 -12 26z m76 -88 c12 -47
-20 -79 -49 -50 -19 20 -19 38 1 58 22 23 41 20 48 -8z"/>
<path d="M8313 1253 c-4 -10 -11 -22 -17 -26 -8 -6 -7 -10 2 -14 7 -3 12 -23
12 -49 0 -47 14 -62 48 -49 16 6 16 7 0 19 -10 7 -18 26 -18 41 0 15 8 34 18
41 16 13 16 13 0 14 -10 0 -18 6 -18 14 0 23 -19 29 -27 9z"/>
<path d="M9826 1263 c-4 -4 -19 -7 -34 -8 -26 0 -27 -2 -30 -62 -3 -58 -1 -63
18 -63 17 0 20 6 20 41 0 32 4 42 19 46 12 3 18 13 17 29 0 13 -1 24 -2 24 0
0 -4 -3 -8 -7z"/>
<path d="M7270 1229 c0 -26 -3 -29 -20 -24 -35 11 -60 -11 -60 -55 0 -45 11
-55 62 -55 l38 0 0 83 c0 48 -4 82 -10 82 -5 0 -10 -14 -10 -31z m-2 -76 c-3
-33 -6 -38 -28 -38 -19 0 -26 6 -28 23 -5 36 5 52 33 52 24 0 26 -3 23 -37z"/>
<path d="M9663 1253 c-7 -3 -13 -12 -13 -20 0 -11 7 -14 24 -9 39 10 39 -9 0
-23 -34 -12 -40 -24 -28 -55 4 -12 20 -16 54 -16 l48 0 -4 52 c-2 28 -7 55
-13 61 -11 11 -50 16 -68 10z m42 -83 c-3 -5 -13 -10 -21 -10 -8 0 -12 5 -9
10 3 6 13 10 21 10 8 0 12 -4 9 -10z"/>
<path d="M6640 1165 c0 -50 4 -85 10 -85 6 0 10 35 10 85 0 50 -4 85 -10 85
-6 0 -10 -35 -10 -85z"/>
<path d="M6700 1165 c0 -47 4 -85 9 -85 11 0 21 91 14 134 -10 65 -23 38 -23
-49z"/>
<path d="M9038 1233 c-9 -36 4 -113 18 -113 9 0 14 11 14 34 0 72 -21 124 -32
79z"/>
<path d="M9290 1201 c0 -32 6 -55 16 -65 18 -19 40 -21 50 -5 5 8 9 8 14 -1
16 -25 28 1 26 57 -1 44 -5 58 -16 58 -11 0 -15 -12 -16 -43 -1 -48 -7 -57
-29 -49 -10 5 -15 20 -15 52 0 33 -4 45 -15 45 -11 0 -15 -12 -15 -49z"/>
<path d="M9434 1243 c-30 -22 -13 -73 24 -73 7 0 12 -5 12 -11 0 -7 -10 -9
-25 -7 -30 6 -35 -18 -5 -27 29 -9 60 12 60 40 0 18 -7 26 -25 31 -31 8 -32
22 -2 26 12 2 21 8 20 13 -3 12 -44 18 -59 8z"/>
<path d="M6390 1160 c0 -47 4 -80 10 -80 6 0 10 16 10 35 0 32 2 35 31 35 18
0 28 4 24 10 -4 6 -16 10 -28 8 -17 -2 -23 3 -25 25 -3 24 0 27 27 27 17 0 31
5 31 10 0 6 -18 10 -40 10 l-40 0 0 -80z"/>
<path d="M8401 1223 c-15 -10 -21 -25 -21 -52 0 -46 20 -66 55 -57 18 5 25 2
25 -9 0 -15 -6 -18 -47 -19 -37 -2 -31 -21 8 -24 55 -5 71 20 67 103 l-3 68
-32 2 c-18 1 -41 -4 -52 -12z m54 -48 c0 -23 -5 -31 -21 -33 -26 -4 -38 22
-23 49 16 30 44 20 44 -16z"/>
<path d="M8538 1233 c-10 -2 -18 -9 -18 -14 0 -6 8 -9 18 -8 49 5 60 -15 13
-24 -30 -6 -44 -27 -35 -51 8 -20 23 -24 62 -19 31 5 32 7 32 54 0 38 -4 51
-19 59 -20 10 -25 11 -53 3z m42 -78 c0 -8 -9 -15 -20 -15 -22 0 -27 15 -7 23
21 9 27 7 27 -8z"/>
<path d="M8640 1178 c0 -45 3 -58 15 -58 11 0 15 12 15 45 0 38 3 45 20 45 17
0 20 -7 20 -45 0 -33 4 -45 15 -45 11 0 15 12 15 49 0 57 -12 70 -62 68 l-38
-1 0 -58z"/>
<path d="M7968 1219 c-26 -15 -22 -48 7 -61 32 -15 32 -28 -1 -28 -16 0 -24
-5 -22 -12 5 -15 35 -17 61 -5 27 13 20 45 -14 62 -33 17 -33 27 1 29 11 0 21
6 23 11 3 14 -34 17 -55 4z"/>
<path d="M8198 1219 c-21 -12 -25 -78 -6 -97 14 -14 57 -15 78 -2 16 10 8 13
-26 11 -11 -1 -27 5 -34 13 -11 14 -8 16 24 16 25 0 39 5 43 16 14 38 -40 67
-79 43z m49 -25 c2 -5 -6 -10 -17 -11 -20 -2 -26 8 -13 21 9 8 26 3 30 -10z"/>
<path d="M7590 1183 c-18 -56 -25 -58 -39 -13 -7 23 -18 40 -26 40 -15 0 -7
-27 26 -92 10 -21 3 -44 -17 -52 -8 -3 -14 -10 -14 -15 0 -6 9 -7 22 -2 15 5
29 30 49 84 16 42 24 79 19 82 -4 3 -14 -12 -20 -32z"/>
<path d="M7710 1207 c0 -7 10 -13 23 -12 31 0 32 -19 0 -27 -33 -9 -44 -27
-32 -50 7 -13 20 -17 52 -15 41 3 42 3 42 42 1 59 -10 75 -50 75 -22 0 -35 -5
-35 -13z m48 -73 c-9 -9 -21 -13 -27 -9 -16 10 -3 25 22 25 20 0 20 -1 5 -16z"/>
<path d="M7822 1163 c4 -75 28 -86 28 -13 0 48 2 51 23 48 19 -3 22 -10 25
-51 4 -57 25 -60 27 -4 1 64 -9 77 -60 77 l-46 0 3 -57z"/>
<path d="M7094 1200 c-52 -21 -32 -110 26 -110 41 0 47 18 8 22 -33 3 -48 32
-18 34 8 1 25 2 37 2 25 2 22 27 -5 50 -18 14 -19 14 -48 2z m44 -27 c2 -8 -6
-13 -22 -13 -25 0 -33 10 -19 24 10 10 36 3 41 -11z"/>
<path d="M6532 1190 c-56 -23 -43 -110 17 -110 55 0 80 61 41 100 -22 22 -25
23 -58 10z m48 -24 c28 -34 -11 -94 -44 -67 -19 16 -21 67 -3 74 22 9 34 7 47
-7z"/>
<path d="M6765 1176 c-33 -50 12 -108 68 -87 34 13 45 53 23 86 -22 34 -70 34
-91 1z m75 -18 c12 -22 12 -29 1 -42 -35 -42 -86 4 -56 50 19 30 34 27 55 -8z"/>
<path d="M6890 1189 c0 -5 5 -30 11 -55 14 -56 37 -56 54 1 l12 40 13 -42 c7
-24 18 -43 25 -43 6 0 19 25 27 55 12 42 12 55 3 55 -7 0 -15 -18 -19 -40 -6
-40 -26 -47 -26 -10 0 60 -35 68 -45 10 -4 -22 -10 -40 -15 -40 -4 0 -10 18
-14 40 -3 22 -11 40 -16 40 -6 0 -10 -5 -10 -11z"/>
<path d="M9097 1143 c-4 -3 -7 -17 -7 -30 0 -33 24 -24 28 10 3 26 -7 35 -21
20z"/>
<path d="M9825 1108 c6 -15 115 -12 115 3 0 5 -27 9 -60 9 -43 0 -58 -3 -55
-12z"/>
<path d="M9848 1063 c7 -3 16 -2 19 1 4 3 -2 6 -13 5 -11 0 -14 -3 -6 -6z"/>
<path d="M9760 341 c0 -16 -8 -21 -42 -24 -30 -2 -24 -4 22 -4 36 -1 59 1 53
4 -7 2 -13 11 -13 18 0 8 -4 17 -10 20 -5 3 -10 -3 -10 -14z"/>
</g>
</svg>
